<svg xmlns="http://www.w3.org/2000/svg" width="14.687" height="12.851" viewBox="0 0 14.687 12.851"><path d="M.525,6.579H14.163a.525.525,0,0,0,.525-.525V4.744a.525.525,0,0,0-.525-.525H.525A.524.524,0,0,0,0,4.744V6.055a.525.525,0,0,0,.525.525Zm0,5.245H14.163a.525.525,0,0,0,.525-.525V9.989a.525.525,0,0,0-.525-.525H.525A.525.525,0,0,0,0,9.989V11.3A.525.525,0,0,0,.525,11.825Zm0,5.245H14.163a.525.525,0,0,0,.525-.525V15.234a.525.525,0,0,0-.525-.525H.525A.525.525,0,0,0,0,15.234v1.312A.525.525,0,0,0,.525,17.07Z" transform="translate(0 -4.219)" fill="#fff"/></svg>