<svg xmlns="http://www.w3.org/2000/svg" width="29.46" height="29.517" viewBox="0 0 29.46 29.517">
  <g id="Сгруппировать_60" data-name="Сгруппировать 60" transform="translate(-1879.628 -1020.553)">
    <path id="Контур_62" data-name="Контур 62" d="M1879.628,1020.553v29.517h29.46v-29.517Zm14.743,1.329h13.392v3.591h-13.392Zm-4.87,0h3.59v13.392h-3.59Zm3.59,14.676v3.589h-12.139v-3.589Zm-8.481-14.675h3.6v13.4h-3.565a.219.219,0,0,1-.022-.019.042.042,0,0,1-.012-.023q0-6.619,0-13.238Zm-1.271,0v13.4h-2.36a.177.177,0,0,1-.021-.018.043.043,0,0,1-.012-.023q0-6.6,0-13.208v-.148Zm-2.38,19.548h12.132v3.592h-12.114C1880.931,1044.824,1880.915,1041.965,1880.96,1041.427Zm12.14,6.065v1.2h-12.144v-2.372c.217-.043,11.378-.061,12.144-.016Zm1.265-20.715a.143.143,0,0,1,.016-.017c.007-.006.015-.013.023-.013l13.18,0h.177v3.6h-13.4Zm3.66,21.91h-3.653v-12.14h3.62a.16.16,0,0,1,.016.017c.005.007.013.016.013.024,0,.363,0,.726,0,1.089Q1898.025,1043.175,1898.025,1048.686Zm4.868,0h-3.583a.085.085,0,0,1-.013-.014.048.048,0,0,1-.011-.024q0-5.928,0-11.856v-.238h3.61Zm-.151-13.4h-8.371v-3.653h13.4v3.639c-.268.029-.542.01-.814.014s-.573,0-.859,0h-3.351Zm5.08,13.122v.252c-.089.129-.194.088-.283.089-.8,0-1.6,0-2.406,0h-.941c-.048-.242-.069-11.464-.024-12.24h3.617a.994.994,0,0,1,.035.182c0,.391,0,.783,0,1.174Z" fill="#0e0e0e"/>
  </g>
</svg>
