<svg xmlns="http://www.w3.org/2000/svg" width="33.194" height="33.195" viewBox="0 0 33.194 33.195">
  <g id="Сгруппировать_63" data-name="Сгруппировать 63" transform="translate(-630.071 -1165.361)">
    <path id="Контур_80" data-name="Контур 80" d="M637.951,1196.938a12.859,12.859,0,0,0-3.169-7.684c-.4-.456-.8-.9-1.208-1.348-.553-.615-.43-1.174.332-1.487a19.711,19.711,0,0,0,4.87-2.833,18.82,18.82,0,0,0,3.951-4.333,19.849,19.849,0,0,0,1.62-3.005,2.06,2.06,0,0,1,.11-.238.788.788,0,0,1,1-.318.758.758,0,0,1,.422.981c-.268.623-.549,1.243-.868,1.841a20.083,20.083,0,0,1-3.995,5.231,20.29,20.29,0,0,1-5.188,3.554c-.138.066-.274.134-.453.221.091.1.164.193.241.277a14.83,14.83,0,0,1,2.67,4,14.232,14.232,0,0,1,1.087,3.64,18.984,18.984,0,0,1,.195,2.225.861.861,0,0,1-.879.888c-2.578-.015-5.155-.006-7.733-.008a.8.8,0,0,1-.877-.908q0-7.766,0-15.531c0-5.232.008-10.464-.01-15.7a.93.93,0,0,1,1.053-1.05q15.532.021,31.063.01c.11,0,.22-.005.329,0a.789.789,0,0,1,.739.747c.006.087,0,.175,0,.263v31.129a.805.805,0,0,0,0,.1.858.858,0,0,1-.95.945c-2.545-.022-5.089-.011-7.634-.006a.819.819,0,0,1-.9-.888,14.565,14.565,0,0,1,3.905-9.819c.088-.1.172-.195.282-.321-.131-.064-.235-.116-.34-.166a20.466,20.466,0,0,1-11.01-13.1,19.2,19.2,0,0,1-.68-4.076c-.026-.471-.046-.942-.05-1.413a.789.789,0,0,1,1.221-.633.78.78,0,0,1,.363.663c.012.416.028.833.052,1.248a18.345,18.345,0,0,0,1.307,5.807,18.722,18.722,0,0,0,5.505,7.544,19.061,19.061,0,0,0,4.979,2.967c.1.041.2.08.3.128a.773.773,0,0,1,.3,1.231c-.272.343-.575.662-.873.984a14.22,14.22,0,0,0-1.984,2.655,12.676,12.676,0,0,0-1.574,4.7c-.035.282-.063.566-.094.846.247.059,5.755.077,6.265.023V1167c-.224-.06-29.4-.083-29.966-.02v29.931C631.917,1196.974,637.26,1197,637.951,1196.938Z" transform="translate(0)"/>
  </g>
</svg>
