<svg xmlns="http://www.w3.org/2000/svg" width="36.001" height="31.509" viewBox="0 0 36.001 31.509"><path d="M32.231,4.521C28.167,1.1,21.888,1.617,18,5.576,14.112,1.617,7.833,1.1,3.769,4.521a10.638,10.638,0,0,0-.746,15.553L15.356,32.639a3.694,3.694,0,0,0,5.288.007L32.977,20.081a10.647,10.647,0,0,0-.745-15.56ZM30.572,17.7,18.239,30.27a.289.289,0,0,1-.478,0L5.428,17.7a7.251,7.251,0,0,1,.513-10.6,7.129,7.129,0,0,1,9.6.738L18,10.357l2.461-2.51a7.124,7.124,0,0,1,9.6-.745,7.281,7.281,0,0,1,.513,10.6Z" transform="translate(0 -2.248)" fill="#e5742e"/></svg>