<svg xmlns="http://www.w3.org/2000/svg" width="31.742" height="31.741" viewBox="0 0 31.742 31.741"><path d="M16.433.563a15.871,15.871,0,1,0,15.872,15.87A15.872,15.872,0,0,0,16.433.563Zm0,7.039a2.688,2.688,0,1,1-2.688,2.688A2.688,2.688,0,0,1,16.433,7.6Zm3.584,16.254a.768.768,0,0,1-.768.768H13.617a.768.768,0,0,1-.768-.768V22.32a.768.768,0,0,1,.768-.768h.768v-4.1h-.768a.768.768,0,0,1-.768-.768V15.152a.768.768,0,0,1,.768-.768h4.1a.768.768,0,0,1,.768.768v6.4h.768a.768.768,0,0,1,.768.768v1.536Z" transform="translate(-0.563 -0.563)" fill="#e27437"/></svg>