<svg xmlns="http://www.w3.org/2000/svg" width="47.631" height="20.498" viewBox="0 0 47.631 20.498">
  <path id="Контур_73" data-name="Контур 73" d="M1786.936,1964.852a1.909,1.909,0,0,1,.55,1.372c0,.517,0,1.034,0,1.552h1.687c0-.475,0-.948,0-1.424a6.4,6.4,0,0,0,3.439-.1,6.113,6.113,0,0,0,2.769-2.09c.189.172.367.314.522.479a5.4,5.4,0,0,0,8.265-.009c.137-.148.272-.3.475-.519a5.61,5.61,0,0,0,4.551,2.43,5.512,5.512,0,0,0,4.6-2.447,5.775,5.775,0,0,0,4.656,2.448,7.3,7.3,0,0,1,10.785-.215v1.445h1.735q0-.875,0-1.75a1.349,1.349,0,0,1,.482-1.079,5.3,5.3,0,0,0,1.555-3.008,2.237,2.237,0,0,0-.3-1.691q-3.783-6.008-7.511-12.05a1.661,1.661,0,0,0-1.592-.914q-14.263.037-28.526-.006a1.986,1.986,0,0,0-1.927,1.084c-2.342,3.831-4.692,7.657-7.13,11.426a3.062,3.062,0,0,0-.286,3.141A7.755,7.755,0,0,0,1786.936,1964.852Zm31.359,0c-1.369-.028-3.277-1.2-3.39-2.856h7.053A3.635,3.635,0,0,1,1818.3,1964.853Zm9.7-.021a3.685,3.685,0,0,1-3.94-2.84h7.03A3.357,3.357,0,0,1,1827.991,1964.833Zm-4.3-15.805,6.962,11.2h-7.048l-4.121-11.2Zm-6.025,0,4.114,11.185h-7.2c-.456-3.7-.913-7.4-1.381-11.185Zm-8.309,15.814a3.583,3.583,0,0,1-3.675-2.851h7.051A3.48,3.48,0,0,1,1809.359,1964.847Zm-2.395-15.793h4.514c.451,3.673.906,7.37,1.369,11.143h-7.236C1806.067,1956.449,1806.512,1952.777,1806.964,1949.053Zm-7.026,15.8a3.557,3.557,0,0,1-3.446-2.838h7.108A3.683,3.683,0,0,1,1799.938,1964.849Zm5.3-15.8-1.35,11.135h-7.212l4.1-11.135Zm-10.488-.018h4.207l-4.114,11.191H1787.8Zm-.39,12.975a3.616,3.616,0,0,1-7.064,0Z" transform="translate(-1785.421 -1947.278)"/>
</svg>
