<svg xmlns="http://www.w3.org/2000/svg" width="31.998" height="33.195" viewBox="0 0 31.998 33.195">
  <g id="Сгруппировать_64" data-name="Сгруппировать 64" transform="translate(-386.37 -2258.791)">
    <path id="Контур_81" data-name="Контур 81" d="M388.15,2277.016V2263.96c0-.248-.015-.5,0-.742.042-.571-.086-.887-.782-.932-.954-.062-.983-.135-.99-1.077-.021-2.742-.213-2.4,2.353-2.4q13.5-.009,27,0c.581,0,1.191-.133,1.706.3.545.461,1.049.943.877,1.747a2.117,2.117,0,0,1-1.711,1.438c-.591.042-1.186.023-1.78.017-.436,0-.621.2-.613.63.008.4,0,.791,0,1.187q0,13.055,0,26.111c0,1.739,0,1.744-1.7,1.744q-11.349,0-22.7,0c-.247,0-.495-.007-.742,0-.6.017-.934-.243-.922-.875.006-.346,0-.692,0-1.039q0-6.528,0-13.055Zm24.93-1.612q0-5.782,0-11.566c0-1.655.136-1.523-1.51-1.524q-10.38-.009-20.759,0c-1.639,0-1.52-.121-1.52,1.518q0,11.566,0,23.132c0,1.659-.13,1.515,1.511,1.516q10.454,0,20.908,0c.3,0,.593,0,.889-.015a.437.437,0,0,0,.465-.454c.014-.3.017-.592.017-.889Q413.079,2281.26,413.08,2275.4Zm-11.9,14.207H390.652c-.3,0-.593,0-.889.016-.385.019-.465.276-.465.606s.087.586.471.6c.346.014.692.012,1.038.012l20.761.006c.3,0,.593-.011.89,0,.427.009.618-.177.617-.619s-.2-.622-.623-.614c-.346.006-.692,0-1.038,0Q406.3,2289.608,401.181,2289.61Zm2.379-28.431q4.82,0,9.64,0a10.148,10.148,0,0,0,1.182-.053.5.5,0,0,0,.441-.511.541.541,0,0,0-.475-.636,7.227,7.227,0,0,0-1.034-.039q-9.863,0-19.724,0c-.3,0-.593,0-.889.02-.395.022-.438.294-.442.618,0,.345.1.575.477.588.345.012.692.015,1.037.015Zm-14.837-.622c-.01-.4-.24-.585-.647-.6-.356-.015-.551.132-.556.5s0,.708.5.7C388.415,2261.159,388.686,2261.018,388.722,2260.558Zm1.717-.606c-.478.01-.552.25-.559.588-.009.426.141.647.594.615.417-.03.639-.241.607-.659A.56.56,0,0,0,390.439,2259.951Zm26.765.52c-.049-.364-.3-.51-.686-.521-.475-.014-.519.28-.526.65-.01.443.2.591.612.558A.59.59,0,0,0,417.2,2260.471Z" transform="translate(0 0)"/>
    <path id="Контур_82" data-name="Контур 82" d="M484.051,2354.359H483.9c-1.394-.008-1.482-.065-1.535-1a2.191,2.191,0,0,1,1.595-2.485,1.991,1.991,0,0,1,1.882,1.579,3.941,3.941,0,0,1,.024.74c-.017,1.015-.112,1.118-1.075,1.164C484.546,2354.368,484.3,2354.358,484.051,2354.359Zm.666-1.642c0-.385-.13-.678-.566-.7-.421-.018-.612.218-.635.625-.026.464.236.577.638.567C484.494,2353.2,484.721,2353.1,484.717,2352.717Z" transform="translate(-67.505 -64.75)"/>
    <path id="Контур_83" data-name="Контур 83" d="M487.587,2273.512c-.043.33-.223.552-.574.524a.514.514,0,0,1-.044-1.017C487.307,2272.961,487.52,2273.16,487.587,2273.512Z" transform="translate(-70.449 -9.999)"/>
    <path id="Контур_84" data-name="Контур 84" d="M487.562,2279.565c-.094.329-.293.535-.642.447a.475.475,0,0,1-.39-.547.493.493,0,0,1,.634-.445A.508.508,0,0,1,487.562,2279.565Z" transform="translate(-70.431 -14.212)"/>
    <path id="Контур_85" data-name="Контур 85" d="M487.572,2285.573c-.093.327-.292.535-.639.447a.475.475,0,0,1-.39-.545.49.49,0,0,1,.63-.444A.508.508,0,0,1,487.572,2285.573Z" transform="translate(-70.44 -18.439)"/>
    <path id="Контур_86" data-name="Контур 86" d="M487.581,2291.552c-.068.332-.275.536-.615.473a.481.481,0,0,1-.415-.528.494.494,0,0,1,.608-.479A.513.513,0,0,1,487.581,2291.552Z" transform="translate(-70.449 -22.656)"/>
    <path id="Контур_87" data-name="Контур 87" d="M487.578,2297.546c-.069.333-.278.538-.618.477a.477.477,0,0,1-.414-.529.5.5,0,0,1,.61-.482A.509.509,0,0,1,487.578,2297.546Z" transform="translate(-70.445 -26.871)"/>
    <path id="Контур_88" data-name="Контур 88" d="M487.589,2303.516a.517.517,0,0,1-.459.517.492.492,0,0,1-.57-.521.476.476,0,0,1,.45-.5A.507.507,0,0,1,487.589,2303.516Z" transform="translate(-70.457 -31.099)"/>
    <path id="Контур_89" data-name="Контур 89" d="M487.572,2309.57c-.093.328-.292.535-.639.447a.475.475,0,0,1-.39-.545.49.49,0,0,1,.63-.444A.508.508,0,0,1,487.572,2309.57Z" transform="translate(-70.44 -35.315)"/>
    <path id="Контур_90" data-name="Контур 90" d="M487.576,2315.57c-.092.331-.293.537-.641.451a.476.476,0,0,1-.392-.547.492.492,0,0,1,.631-.448A.507.507,0,0,1,487.576,2315.57Z" transform="translate(-70.44 -39.534)"/>
    <path id="Контур_91" data-name="Контур 91" d="M487.583,2321.537a.512.512,0,0,1-.473.494.494.494,0,0,1-.558-.537.473.473,0,0,1,.464-.482A.512.512,0,0,1,487.583,2321.537Z" transform="translate(-70.452 -43.756)"/>
    <path id="Контур_92" data-name="Контур 92" d="M487.581,2327.548c-.068.332-.275.536-.615.473a.481.481,0,0,1-.415-.528.494.494,0,0,1,.607-.479A.513.513,0,0,1,487.581,2327.548Z" transform="translate(-70.449 -47.969)"/>
    <path id="Контур_93" data-name="Контур 93" d="M487.6,2333.571c-.081.274-.235.478-.512.469a.494.494,0,0,1-.522-.573.475.475,0,0,1,.5-.45A.521.521,0,0,1,487.6,2333.571Z" transform="translate(-70.457 -52.198)"/>
    <path id="Контур_94" data-name="Контур 94" d="M487.575,2339.532a.51.51,0,0,1-.6.485.481.481,0,0,1-.428-.52.5.5,0,0,1,.6-.5A.515.515,0,0,1,487.575,2339.532Z" transform="translate(-70.443 -56.402)"/>
    <path id="Контур_95" data-name="Контур 95" d="M487.12,2346.026a.514.514,0,0,1-.549-.391A.488.488,0,0,1,487,2345a.474.474,0,0,1,.552.38C487.651,2345.729,487.441,2345.923,487.12,2346.026Z" transform="translate(-70.45 -60.617)"/>
  </g>
</svg>
