<svg id="Сгруппировать_38" data-name="Сгруппировать 38" xmlns="http://www.w3.org/2000/svg" width="36" height="27.404" viewBox="0 0 36 27.404">
  <path id="Контур_22" data-name="Контур 22" d="M862.271,1728.538v-21.656c-.051-.13-.1-.258-.152-.389a3.654,3.654,0,0,0-3.482-2.479c-.4.009-.8-.006-1.195.005-.742.021-.951.23-.957.981-.008,1.1,0,2.2,0,3.3,0,.463,0,.926,0,1.375-.823.157-18.142.12-18.627-.025-.056-.347-.1-.7-.169-1.038a5.779,5.779,0,0,0-11.156-.614c-.076.24-.174.472-.262.708v17.859l.229.731a5.7,5.7,0,0,0,3.005,3.53,6.354,6.354,0,0,0,2.93.582q8.22-.01,16.44,0c3.208,0,6.417-.032,9.625.007a3.72,3.72,0,0,0,3.656-2.626A1.763,1.763,0,0,1,862.271,1728.538Zm-5.784-17.257c0,.317,0,.57,0,.824q0,6.22,0,12.439c0,.9.21,1.1,1.121,1.112a10.875,10.875,0,0,1,1.4.062,2.064,2.064,0,0,1,1.79,1.959,2.1,2.1,0,0,1-1.569,2.143,4.91,4.91,0,0,1-1.182.1q-10.611.009-21.223,0h-.83c.12-.165.165-.242.225-.307a6.176,6.176,0,0,0,1.612-4.431c-.028-4.4-.008-8.807,0-13.212,0-.225.02-.451.032-.7Zm-20.152,10.245-.134.09a5.743,5.743,0,0,0-4.15-1.775,5.866,5.866,0,0,0-4.282,1.859c-.019-.37-.041-.6-.042-.822q-.005-1.967,0-3.934c0-2.341-.013-4.683.009-7.024a4.3,4.3,0,0,1,7.53-2.948,4.6,4.6,0,0,1,1.069,3.183q-.009,5.338,0,10.677Q836.335,1721.179,836.335,1721.526Zm21.677-15.97a2.229,2.229,0,0,1,2.8,2.329c0,.093,0,.187,0,.281q0,8.006,0,16.012c0,.182-.016.364-.025.573a12.455,12.455,0,0,0-1.337-.47,13.572,13.572,0,0,0-1.44-.185Zm-25.961,24.368a4.335,4.335,0,0,1-4.318-4.274,4.295,4.295,0,1,1,4.318,4.274Z" transform="translate(-826.271 -1704.013)" fill="#0e0e0e"/>
  <path id="Контур_23" data-name="Контур 23" d="M1023.429,1837.125a2.949,2.949,0,0,0-2.874,2.944,2.919,2.919,0,0,0,5.838-.023A2.937,2.937,0,0,0,1023.429,1837.125Zm-1.348,2.889a1.4,1.4,0,1,1,2.8.009,1.387,1.387,0,0,1-1.441,1.389A1.368,1.368,0,0,1,1022.081,1840.014Z" transform="translate(-1017.717 -1818.404)" fill="#0e0e0e"/>
</svg>
