<svg xmlns="http://www.w3.org/2000/svg" width="40.579" height="30.436" viewBox="0 0 40.579 30.436">
  <g id="Сгруппировать_66" data-name="Сгруппировать 66" transform="translate(2357.048 -462.111) rotate(90)">
    <path id="Контур_103" data-name="Контур 103" d="M469.363,2317.905h1.442c0-.254-.011-.492,0-.729a.727.727,0,0,1,1.453.017c.005.09,0,.181,0,.272,0,.134,0,.268,0,.428a13.451,13.451,0,0,0,1.443.029c0-.28-.018-.533,0-.783a.722.722,0,0,1,1.147-.529.691.691,0,0,1,.3.578c0,.225,0,.45,0,.7a2.881,2.881,0,0,0,.72.037c.224.006.448,0,.723,0,0-.276-.017-.529,0-.779a.722.722,0,0,1,1.143-.538.685.685,0,0,1,.307.575c0,.226,0,.452,0,.695a2.15,2.15,0,0,0,.713.046c.224.008.449,0,.72,0,0-.27,0-.521.012-.771a.727.727,0,0,1,1.174-.521.694.694,0,0,1,.28.589c0,.223,0,.446,0,.686h1.432c0-.246,0-.5.012-.746a.727.727,0,0,1,1.453.053c0,.223,0,.446,0,.689h1.4a2.4,2.4,0,0,0,.039-.691.727.727,0,0,1,1.454-.052c.016.238,0,.478,0,.74h1.444c0-.266-.017-.52,0-.771a.706.706,0,0,1,.734-.652.714.714,0,0,1,.713.677c.01.12,0,.241,0,.362s0,.237,0,.383h1.44c0-.228.01-.451,0-.673a.747.747,0,0,1,.737-.752.772.772,0,0,1,.728.765c-.014,1.644-.005,3.288-.005,4.932q0,16.9,0,33.807c0,.136.009.273,0,.408a.727.727,0,0,1-1.448-.015c-.017-.239,0-.479,0-.746a13.863,13.863,0,0,0-1.444-.03c0,.281.018.534,0,.784a.723.723,0,0,1-1.146.531.69.69,0,0,1-.3-.578c0-.225,0-.45,0-.7a2.73,2.73,0,0,0-.719-.038c-.224-.007-.448,0-.724,0,0,.276.013.528,0,.778a.681.681,0,0,1-.455.619.692.692,0,0,1-.722-.107.67.67,0,0,1-.273-.546c0-.226,0-.452,0-.694a2.075,2.075,0,0,0-.712-.047c-.224-.009-.449,0-.721,0,0,.27,0,.521-.012.771a.728.728,0,0,1-1.453-.066c0-.223,0-.445,0-.686h-1.406a3.744,3.744,0,0,0-.035.745.7.7,0,0,1-.446.626.725.725,0,0,1-1.009-.678c0-.223,0-.447,0-.691h-1.4a2.353,2.353,0,0,0-.039.691.728.728,0,0,1-1.454.053c-.016-.238,0-.478,0-.766h-1.444c0,.291.015.544,0,.8a.675.675,0,0,1-.469.608.693.693,0,0,1-.72-.124.682.682,0,0,1-.26-.553c0-.225,0-.449,0-.724l-.73,0h-.711c0,.255-.01.478,0,.7a.731.731,0,1,1-1.461-.012c.016-.208,0-.419,0-.656a3.385,3.385,0,0,0-.723-.03c-.223-.005-.447,0-.72,0,0,.279.013.531,0,.782a.68.68,0,0,1-.459.615.693.693,0,0,1-.722-.11.676.676,0,0,1-.271-.548c0-.225,0-.451,0-.7a2.368,2.368,0,0,0-.716-.043c-.224-.008-.448,0-.717,0,0,.273.008.526-.013.776a.723.723,0,0,1-1.14.545.686.686,0,0,1-.31-.573c-.005-.226,0-.452,0-.695a1.943,1.943,0,0,0-.709-.05c-.224-.01-.45,0-.724,0,0,.267.007.519-.012.768a.723.723,0,0,1-1.135.556.689.689,0,0,1-.314-.525c-.011-.12,0-.241,0-.362q0-19.234,0-38.469a3.886,3.886,0,0,1,.006-.452.728.728,0,0,1,1.445.016c.014.134,0,.271.005.407,0,.117,0,.235,0,.371h1.4a2.866,2.866,0,0,0,.035-.7.731.731,0,0,1,.617-.727.722.722,0,0,1,.837.684c.016.237,0,.477,0,.737h1.4a2.169,2.169,0,0,0,.041-.687.732.732,0,0,1,.61-.733.72.72,0,0,1,.843.676C469.377,2317.394,469.363,2317.634,469.363,2317.905ZM463.6,2319.4c-.075.838-.047,34.387.029,34.73h27.375c.012,0,.024-.015.035-.025a.3.3,0,0,0,.023-.023V2319.4Z" transform="translate(0 0)" />
    <path id="Контур_104" data-name="Контур 104" d="M518.76,2380.477c0,4.963-.009,9.927.01,14.89,0,.7-.261,1.037-1.057,1.034q-11.292-.027-22.584-.011c-.075,0-.151,0-.226,0a.721.721,0,0,1-.775-.753c0-.091,0-.181,0-.272q0-14.89,0-29.78c0-.106,0-.211,0-.317a.717.717,0,0,1,.73-.752c.09-.005.181,0,.272,0h22.629c.075,0,.151,0,.226,0a.721.721,0,0,1,.773.8c.005,1.147,0,2.293,0,3.44Q518.76,2374.616,518.76,2380.477Zm-21.02,11.244c.142-.134.252-.234.357-.338.651-.65,1.3-1.3,1.951-1.953a.732.732,0,0,1,.723-.273,1.192,1.192,0,0,1,.49.3c.681.662,1.348,1.339,2.021,2.01.082.082.173.156.271.244.129-.123.239-.223.344-.329q.977-.974,1.951-1.952a.729.729,0,0,1,.853-.23,1.356,1.356,0,0,1,.394.293c.666.657,1.324,1.321,1.987,1.981.082.081.175.152.329.284a3.716,3.716,0,0,1,.289-.378q.97-.982,1.951-1.952a.737.737,0,0,1,1.182.005c.055.052.107.106.16.16q.944.944,1.889,1.887c.081.081.176.149.276.233.628-.629,1.226-1.247,1.848-1.839a.932.932,0,0,0,.3-.75q-.013-9.321-.007-18.642v-.547c-.139.13-.239.218-.333.311-.417.415-.828.836-1.25,1.246a.738.738,0,0,1-1.182-.008c-.066-.062-.128-.127-.192-.191q-.928-.928-1.857-1.855c-.081-.081-.175-.148-.3-.253-.117.135-.209.255-.315.362-.649.652-1.3,1.306-1.952,1.951a.732.732,0,0,1-1.15.012c-.066-.062-.128-.127-.192-.192q-.9-.9-1.792-1.791c-.1-.1-.215-.2-.341-.322-.123.115-.234.212-.339.317-.641.638-1.3,1.265-1.915,1.924a.822.822,0,0,1-1.291,0c-.619-.659-1.274-1.286-1.915-1.924-.1-.1-.215-.2-.339-.316-.125.118-.236.217-.341.322-.609.607-1.235,1.2-1.818,1.829a.868.868,0,0,1-1.482-.012c-.433-.479-.91-.919-1.422-1.43v.56q0,8.8,0,17.6c0,.422,0,.844,0,1.267a.455.455,0,0,0,.137.363C496.383,2390.357,497.041,2391.021,497.74,2391.721Zm-2.157-25.733c0,.529.011,1.011,0,1.493a.719.719,0,0,0,.239.594c.566.543,1.113,1.105,1.669,1.659.083.082.173.156.272.245.129-.123.239-.224.344-.329.662-.66,1.318-1.327,1.987-1.981a.724.724,0,0,1,1.117-.006c.067.061.129.128.193.192q.944.944,1.889,1.887c.082.082.175.151.328.283a3.8,3.8,0,0,1,.289-.378c.636-.644,1.291-1.269,1.913-1.927a.794.794,0,0,1,1.254.013c.058.069.127.128.191.193q.912.911,1.825,1.823c.081.08.175.148.275.231l2.036-2.038c.117-.117.228-.243.355-.347a.72.72,0,0,1,.953-.01,2.81,2.81,0,0,1,.228.22q.928.928,1.857,1.856c.1.1.215.2.339.319.1-.094.193-.17.276-.252.449-.448.872-.923,1.352-1.335a1.386,1.386,0,0,0,.55-1.33c-.046-.351,0-.713-.017-1.073Zm5.067,24.94c-.123.115-.234.212-.339.316-.641.639-1.295,1.265-1.914,1.924a.815.815,0,0,1-1.289,0c-.395-.435-.826-.836-1.244-1.25-.076-.075-.161-.14-.26-.224a20,20,0,0,0,.046,3.234h21.573c.012,0,.025-.015.035-.023s.021-.021.03-.03v-3.2c-.125.117-.225.2-.319.3-.417.415-.828.836-1.249,1.245a.738.738,0,0,1-1.182-.007c-.065-.062-.128-.127-.192-.192q-.928-.928-1.856-1.854c-.081-.081-.176-.149-.3-.256-.116.135-.207.256-.313.362-.605.61-1.232,1.2-1.816,1.829a.847.847,0,0,1-1.446-.021c-.048-.058-.106-.107-.159-.16q-.9-.9-1.792-1.79a2.672,2.672,0,0,0-.245-.193l-2.033,2.034c-.117.117-.228.243-.355.348a.719.719,0,0,1-.952.008,2.7,2.7,0,0,1-.228-.219q-.928-.928-1.856-1.854C500.886,2391.145,500.776,2391.045,500.65,2390.928Z" transform="translate(-29.116 -43.695)" />
    <path id="Контур_105" data-name="Контур 105" d="M559.883,2463.391a.619.619,0,0,1,.541.2c.051.055.107.107.16.16q2.976,2.976,5.949,5.954a1.245,1.245,0,0,1,.331.469.729.729,0,0,1-.234.775c-.5.479-.985.978-1.475,1.469q-2.3,2.3-4.611,4.6a1.213,1.213,0,0,1-.477.313.705.705,0,0,1-.734-.231c-.567-.585-1.149-1.155-1.725-1.731q-2.176-2.176-4.349-4.354a1.15,1.15,0,0,1-.311-.43.677.677,0,0,1,.186-.746c.034-.03.064-.064.1-.1q3.024-3.024,6.047-6.048C559.45,2463.527,559.619,2463.353,559.883,2463.391Zm5.182,6.944c-.847-.963-4.9-4.959-5.2-5.125-.964.847-4.962,4.9-5.127,5.2.87.988,4.9,4.961,5.15,5.1Z" transform="translate(-82.576 -133.614)" />
    <path id="Контур_106" data-name="Контур 106" d="M603.781,2511.239a.743.743,0,0,1-.234.546c-.713.714-1.42,1.433-2.143,2.136a.694.694,0,0,1-1.048,0q-1.084-1.055-2.14-2.139a.706.706,0,0,1,0-1.081q1.057-1.082,2.14-2.138a.694.694,0,0,1,1.047,0c.733.715,1.452,1.443,2.173,2.17A.661.661,0,0,1,603.781,2511.239Zm-1.848.063-1.076-1.08-1.09,1.044c.186.186.359.371.545.543a2.98,2.98,0,0,0,.565.522Z" transform="translate(-123.552 -174.486)" />
  </g>
</svg>
