<svg xmlns="http://www.w3.org/2000/svg" width="29.46" height="29.517"><g data-name="Сгруппировать 60"><path data-name="Контур 62" d="M0 0v29.517h29.46V0zm14.743 1.329h13.392V4.92H14.743zm-4.87 0h3.59v13.392h-3.59zm3.59 14.676v3.589H1.324v-3.589zM4.982 1.33h3.6v13.4H5.017a.219.219 0 01-.022-.019.042.042 0 01-.012-.023V1.45zm-1.271 0v13.4h-2.36a.177.177 0 01-.021-.018.043.043 0 01-.012-.023V1.333zm-2.38 19.548h12.132v3.592H1.349c-.046-.199-.062-3.058-.017-3.596zm12.14 6.065v1.2H1.327v-2.372c.217-.043 11.378-.061 12.144-.016zm1.265-20.715a.143.143 0 01.016-.017c.007-.006.015-.013.023-.013h13.357v3.6h-13.4zm3.66 21.91h-3.653v-12.14h3.62a.16.16 0 01.016.017c.005.007.013.016.013.024v1.089q.005 5.494.005 11.005zm4.868 0h-3.583a.085.085 0 01-.013-.014.048.048 0 01-.011-.024V16.006h3.61zm-.151-13.4h-8.371v-3.653h13.4v3.639c-.268.029-.542.01-.814.014s-.573 0-.859 0h-3.351zm5.08 13.122v.252c-.089.129-.194.088-.283.089h-3.347c-.048-.242-.069-11.464-.024-12.24h3.617a.994.994 0 01.035.182v1.174z" fill="#0e0e0e"/></g></svg>