<svg xmlns="http://www.w3.org/2000/svg" width="40" height="32"><path d="M39.242 10.567a.468.468 0 01.758.391V28a3.882 3.882 0 01-3.75 4H3.75A3.882 3.882 0 010 28V10.967a.465.465 0 01.758-.391c1.75 1.449 4.07 3.291 12.039 9.466 1.649 1.284 4.43 3.983 7.2 3.967 2.789.025 5.626-2.733 7.211-3.967 7.969-6.175 10.281-8.025 12.031-9.476zM20 21.333c1.812.033 4.422-2.433 5.734-3.45C36.1 9.858 36.891 9.158 39.281 7.159A2.044 2.044 0 0040 5.583V4a3.882 3.882 0 00-3.75-4H3.75A3.882 3.882 0 000 4v1.583a2.059 2.059 0 00.719 1.575c2.391 1.991 3.18 2.7 13.547 10.725 1.312 1.017 3.922 3.484 5.734 3.45z" fill="#fff"/></svg>