<svg xmlns="http://www.w3.org/2000/svg" width="16.138" height="12.103"><path d="M15.832 4a.19.19 0 01.306.148v6.442a1.513 1.513 0 01-1.513 1.51H1.513A1.513 1.513 0 010 10.59V4.148A.188.188 0 01.306 4c.706.548 1.642 1.245 4.857 3.58.665.485 1.787 1.507 2.906 1.5 1.125.009 2.27-1.034 2.909-1.5 3.215-2.335 4.148-3.035 4.854-3.584zM8.069 8.069c.731.013 1.784-.92 2.314-1.3 4.182-3.035 4.5-3.3 5.465-4.056a.754.754 0 00.29-.6v-.6A1.513 1.513 0 0014.625 0H1.513A1.513 1.513 0 000 1.513v.6a.759.759 0 00.29.6c.965.753 1.283 1.021 5.465 4.056.53.38 1.583 1.312 2.314 1.3z" fill="#fff"/></svg>