<svg xmlns="http://www.w3.org/2000/svg" width="33.194" height="33.195"><g data-name="Сгруппировать 63"><path data-name="Контур 80" d="M7.88 31.577a12.859 12.859 0 00-3.169-7.684c-.4-.456-.8-.9-1.208-1.348-.553-.615-.43-1.174.332-1.487a19.711 19.711 0 004.87-2.833 18.82 18.82 0 003.951-4.333 19.849 19.849 0 001.62-3.005 2.06 2.06 0 01.11-.238.788.788 0 011-.318.758.758 0 01.422.981 24.326 24.326 0 01-.868 1.841 20.083 20.083 0 01-3.995 5.231 20.29 20.29 0 01-5.188 3.554c-.138.066-.274.134-.453.221.091.1.164.193.241.277a14.83 14.83 0 012.67 4 14.232 14.232 0 011.087 3.64 18.984 18.984 0 01.195 2.225.861.861 0 01-.879.888c-2.578-.015-5.155-.006-7.733-.008a.8.8 0 01-.877-.908V16.742c0-5.232.008-10.464-.01-15.7a.93.93 0 011.053-1.05q15.532.021 31.063.01c.11 0 .22-.005.329 0a.789.789 0 01.739.747c.006.087 0 .175 0 .263v31.129a.805.805 0 000 .1.858.858 0 01-.95.945c-2.545-.022-5.089-.011-7.634-.006a.819.819 0 01-.9-.888 14.565 14.565 0 013.905-9.819l.282-.321c-.131-.064-.235-.116-.34-.166a20.466 20.466 0 01-11.01-13.1 19.2 19.2 0 01-.68-4.076 30.312 30.312 0 01-.05-1.413.789.789 0 011.221-.633.78.78 0 01.363.663c.012.416.028.833.052 1.248a18.345 18.345 0 001.307 5.807 18.722 18.722 0 005.505 7.544 19.061 19.061 0 004.979 2.967c.1.041.2.08.3.128a.773.773 0 01.3 1.231c-.272.343-.575.662-.873.984a14.22 14.22 0 00-1.984 2.655 12.676 12.676 0 00-1.574 4.7c-.035.282-.063.566-.094.846.247.059 5.755.077 6.265.023V1.639c-.224-.06-29.4-.083-29.966-.02V31.55c.24.063 5.583.089 6.274.027z"/></g></svg>