<svg xmlns="http://www.w3.org/2000/svg" width="47.631" height="20.498"><path data-name="Контур 73" d="M1.515 17.574a1.909 1.909 0 01.55 1.372v1.552h1.687v-1.424a6.4 6.4 0 003.439-.1 6.113 6.113 0 002.769-2.09c.189.172.367.314.522.479a5.4 5.4 0 008.265-.009c.137-.148.272-.3.475-.519a5.61 5.61 0 004.551 2.43 5.512 5.512 0 004.6-2.447 5.775 5.775 0 004.656 2.448 7.3 7.3 0 0110.785-.215v1.445h1.735v-1.75a1.349 1.349 0 01.482-1.079 5.3 5.3 0 001.555-3.008 2.237 2.237 0 00-.3-1.691Q43.503 6.96 39.775.918a1.661 1.661 0 00-1.592-.914Q23.92.041 9.657-.002A1.986 1.986 0 007.73 1.082C5.388 4.913 3.038 8.739.6 12.508a3.062 3.062 0 00-.286 3.141 7.755 7.755 0 001.201 1.925zm31.359 0c-1.369-.028-3.277-1.2-3.39-2.856h7.053a3.635 3.635 0 01-3.658 2.857zm9.7-.021a3.685 3.685 0 01-3.94-2.84h7.03a3.357 3.357 0 01-3.094 2.842zm-4.3-15.805l6.962 11.2h-7.048l-4.121-11.2zm-6.025 0l4.114 11.185h-7.2L27.782 1.748zM23.94 17.562a3.583 3.583 0 01-3.675-2.851h7.051a3.48 3.48 0 01-3.378 2.858zM21.545 1.769h4.514l1.369 11.143h-7.236l1.351-11.137zm-7.026 15.8a3.557 3.557 0 01-3.446-2.838h7.108a3.683 3.683 0 01-3.664 2.84zm5.3-15.8l-1.35 11.135h-7.212l4.1-11.135zM9.331 1.751h4.207L9.424 12.942H2.379zm-.39 12.975a3.616 3.616 0 01-7.064 0z"/></svg>