<svg data-name="Сгруппировать 38" xmlns="http://www.w3.org/2000/svg" width="36" height="27.404"><path data-name="Контур 22" d="M36 24.525V2.869l-.152-.389A3.654 3.654 0 0032.366.001c-.4.009-.8-.006-1.195.005-.742.021-.951.23-.957.981-.008 1.1 0 2.2 0 3.3v1.375c-.823.157-18.142.12-18.627-.025-.056-.347-.1-.7-.169-1.038A5.779 5.779 0 00.262 3.985c-.076.24-.174.472-.262.708v17.859l.229.731a5.7 5.7 0 003.005 3.53 6.354 6.354 0 002.93.582q8.22-.01 16.44 0c3.208 0 6.417-.032 9.625.007a3.72 3.72 0 003.656-2.626 1.763 1.763 0 01.115-.251zM30.216 7.268v13.263c0 .9.21 1.1 1.121 1.112a10.875 10.875 0 011.4.062 2.064 2.064 0 011.79 1.959 2.1 2.1 0 01-1.569 2.143 4.91 4.91 0 01-1.182.1q-10.611.009-21.223 0h-.83c.12-.165.165-.242.225-.307a6.176 6.176 0 001.612-4.431c-.028-4.4-.008-8.807 0-13.212 0-.225.02-.451.032-.7zM10.064 17.513l-.134.09a5.743 5.743 0 00-4.15-1.775 5.866 5.866 0 00-4.282 1.859c-.019-.37-.041-.6-.042-.822q-.005-1.967 0-3.934c0-2.341-.013-4.683.009-7.024a4.3 4.3 0 017.53-2.948 4.6 4.6 0 011.069 3.183q-.009 5.338 0 10.677v.694zm21.677-15.97a2.229 2.229 0 012.8 2.329v16.293c0 .182-.016.364-.025.573a12.455 12.455 0 00-1.337-.47 13.572 13.572 0 00-1.44-.185zM5.78 25.911a4.335 4.335 0 01-4.318-4.274 4.295 4.295 0 114.318 4.274z" fill="#0e0e0e"/><path data-name="Контур 23" d="M5.712 18.721a2.949 2.949 0 00-2.874 2.944 2.919 2.919 0 005.838-.023 2.937 2.937 0 00-2.964-2.921zM4.364 21.61a1.4 1.4 0 112.8.009 1.387 1.387 0 01-1.441 1.389 1.368 1.368 0 01-1.359-1.398z" fill="#0e0e0e"/></svg>