<svg xmlns="http://www.w3.org/2000/svg" width="41.567" height="32.038"><path data-name="Контур 102" d="M.001 30.216V1.633c0-.575.13-.748.669-.927a14.826 14.826 0 014.194-.7 12.366 12.366 0 012.534.192c.743.129 1.474.332 2.2.531a.718.718 0 01.6.792c.005.208 0 .416 0 .656h31.36v1.5l-.02.011v2.856h.02v1.493h-.018v2.875h.018v1.5h-.034v2.867h.034v1.5h-.017v2.868h.017v1.466h-.015v2.9h.015V25.5a21.275 21.275 0 000 2.744v1.605h-31.36v.573a.768.768 0 01-.655.892 14.662 14.662 0 01-4.194.7 13.745 13.745 0 01-3.071-.281c-.577-.113-1.146-.28-1.711-.447a.717.717 0 01-.574-.77c.005-.087.008-.194.008-.3zm10.214-1.89c.016.016.026.027.038.037s.023.024.035.025c.121 0 .242.01.364.01h29.381V3.664H10.24a2.9 2.9 0 00-.032.705c-.007.224 0 .449 0 .722h21.454c.926 0 1.066.146 1.131 1.056a5.077 5.077 0 004.233 4.687c.283.045.571.06.858.083a.73.73 0 01.727.722c.005.076 0 .152 0 .227v8.285c0 .091.005.183 0 .273a.724.724 0 01-.794.7 5.107 5.107 0 00-4.953 4.3 6.516 6.516 0 00-.075.721.737.737 0 01-.829.8q-2.709.006-5.417 0H10.215zM26.202 8.434a.893.893 0 011.494-.009c2.271 2.3 4.564 4.576 6.849 6.861.021.021.041.045.065.064a.828.828 0 01-.006 1.359c-2.33 2.3-4.64 4.628-6.958 6.945a2.45 2.45 0 01-.231.219.718.718 0 01-.922 0 3.327 3.327 0 01-.3-.283l-6.148-6.147c-.116-.116-.237-.227-.376-.361-.136.128-.258.237-.373.353q-3.059 3.056-6.116 6.114l-.161.161c-.469.457-.812.455-1.287-.015-.41-.405-.815-.815-1.224-1.222-.084-.084-.175-.161-.292-.268v3.217c.325.078 20.382.109 21.12.031a6.7 6.7 0 015.746-5.772c.071-.323.092-6.762.023-7.3a6.722 6.722 0 01-5.785-5.794h-21.1v3.229c.089-.073.167-.125.233-.19.431-.427.857-.86 1.289-1.286a.768.768 0 011.287.009q3.124 3.119 6.242 6.245a4.455 4.455 0 01.33.426c.185-.174.307-.281.422-.4 2.067-2.06 4.139-4.11 6.179-6.186zm-5.374 7.562l6.139 6.139 6.136-6.138c-.134-.232-5.38-5.529-6.121-6.157zm-10.621-1.788c.125-.109.214-.179.294-.258.43-.427.854-.861 1.289-1.284a.736.736 0 011.188-.007q1.391 1.375 2.766 2.766a.733.733 0 010 1.187q-1.375 1.39-2.766 2.766a.735.735 0 01-1.188 0c-.508-.5-1.007-1.006-1.558-1.558-.013.146-.027.239-.028.331 0 .561-.006 1.122 0 1.683a.523.523 0 00.093.331c.675.694 1.363 1.375 2.011 2.024l6.182-6.18-6.17-6.169-.481.479c-.472.471-.939.948-1.418 1.412a.64.64 0 00-.226.512c.021.637.012 1.273.012 1.965zm.449 1.814l1.8 1.8 1.644-1.643a.9.9 0 00.081-.1l-1.794-1.793zM1.487 29.983a12.249 12.249 0 007.233.036V1.997a13.148 13.148 0 00-7.233 0z"/></svg>