<svg xmlns="http://www.w3.org/2000/svg" width="31.998" height="33.195"><g data-name="Сгруппировать 64"><path data-name="Контур 81" d="M1.78 18.225V5.169c0-.248-.015-.5 0-.742.042-.571-.086-.887-.782-.932-.954-.062-.983-.135-.99-1.077-.021-2.742-.213-2.4 2.353-2.4q13.5-.009 27 0c.581 0 1.191-.133 1.706.3.545.461 1.049.943.877 1.747a2.117 2.117 0 01-1.711 1.438c-.591.042-1.186.023-1.78.017-.436 0-.621.2-.613.63.008.4 0 .791 0 1.187v26.111c0 1.739 0 1.744-1.7 1.744H3.44c-.247 0-.495-.007-.742 0-.6.017-.934-.243-.922-.875.006-.346 0-.692 0-1.039V18.223zm24.93-1.612V5.047c0-1.655.136-1.523-1.51-1.524q-10.38-.009-20.759 0c-1.639 0-1.52-.121-1.52 1.518v23.132c0 1.659-.13 1.515 1.511 1.516H25.34c.3 0 .593 0 .889-.015a.437.437 0 00.465-.454c.014-.3.017-.592.017-.889q-.002-5.862-.001-11.722zM14.81 30.82H4.282c-.3 0-.593 0-.889.016-.385.019-.465.276-.465.606s.087.586.471.6c.346.014.692.012 1.038.012l20.761.006c.3 0 .593-.011.89 0 .427.009.618-.177.617-.619s-.2-.622-.623-.614c-.346.006-.692 0-1.038 0q-5.114-.01-10.233-.008zm2.379-28.431h9.64a10.148 10.148 0 001.182-.053.5.5 0 00.441-.511.541.541 0 00-.475-.636 7.227 7.227 0 00-1.034-.039H7.219c-.3 0-.593 0-.889.02-.395.022-.438.294-.442.618 0 .345.1.575.477.588.345.012.692.015 1.037.015zM2.352 1.767c-.01-.4-.24-.585-.647-.6-.356-.015-.551.132-.556.5s0 .708.5.7c.396.001.667-.14.703-.6zm1.717-.606c-.478.01-.552.25-.559.588-.009.426.141.647.594.615.417-.03.639-.241.607-.659a.56.56 0 00-.642-.545zm26.765.52c-.049-.364-.3-.51-.686-.521-.475-.014-.519.28-.526.65-.01.443.2.591.612.558a.59.59 0 00.596-.688z"/><path data-name="Контур 82" d="M30.176 30.818h-.151c-1.394-.008-1.482-.065-1.535-1a2.191 2.191 0 011.595-2.485 1.991 1.991 0 011.882 1.579 3.941 3.941 0 01.024.74c-.017 1.015-.112 1.118-1.075 1.164-.245.011-.491.001-.74.002zm.666-1.642c0-.385-.13-.678-.566-.7-.421-.018-.612.218-.635.625-.026.464.236.577.638.567.34-.009.567-.109.563-.492z"/><path data-name="Контур 83" d="M30.768 4.722c-.043.33-.223.552-.574.524a.514.514 0 01-.044-1.017c.338-.058.551.141.618.493z"/><path data-name="Контур 84" d="M30.761 6.562c-.094.329-.293.535-.642.447a.475.475 0 01-.39-.547.493.493 0 01.634-.445.508.508 0 01.398.545z"/><path data-name="Контур 85" d="M30.762 8.343c-.093.327-.292.535-.639.447a.475.475 0 01-.39-.545.49.49 0 01.63-.444.508.508 0 01.399.542z"/><path data-name="Контур 86" d="M30.762 10.105c-.068.332-.275.536-.615.473a.481.481 0 01-.415-.528.494.494 0 01.608-.479.513.513 0 01.422.534z"/><path data-name="Контур 87" d="M30.763 11.884c-.069.333-.278.538-.618.477a.477.477 0 01-.414-.529.5.5 0 01.61-.482.509.509 0 01.422.534z"/><path data-name="Контур 88" d="M30.762 13.626a.517.517 0 01-.459.517.492.492 0 01-.57-.521.476.476 0 01.45-.5.507.507 0 01.579.504z"/><path data-name="Контур 89" d="M30.762 15.464c-.093.328-.292.535-.639.447a.475.475 0 01-.39-.545.49.49 0 01.63-.444.508.508 0 01.399.542z"/><path data-name="Контур 90" d="M30.766 17.245c-.092.331-.293.537-.641.451a.476.476 0 01-.392-.547.492.492 0 01.631-.448.507.507 0 01.402.544z"/><path data-name="Контур 91" d="M30.761 18.99a.512.512 0 01-.473.494.494.494 0 01-.558-.537.473.473 0 01.464-.482.512.512 0 01.567.525z"/><path data-name="Контур 92" d="M30.762 20.788c-.068.332-.275.536-.615.473a.481.481 0 01-.415-.528.494.494 0 01.607-.479.513.513 0 01.423.534z"/><path data-name="Контур 93" d="M30.773 22.582c-.081.274-.235.478-.512.469a.494.494 0 01-.522-.573.475.475 0 01.5-.45.521.521 0 01.534.554z"/><path data-name="Контур 94" d="M30.762 24.339a.51.51 0 01-.6.485.481.481 0 01-.428-.52.5.5 0 01.6-.5.515.515 0 01.428.535z"/><path data-name="Контур 95" d="M30.3 26.618a.514.514 0 01-.549-.391.488.488 0 01.429-.635.474.474 0 01.552.38c.099.349-.111.543-.432.646z"/></g></svg>