<svg xmlns="http://www.w3.org/2000/svg" width="36" height="31.622"><g data-name="Сгруппировать 56" fill="#0e0e0e"><path data-name="Контур 24" d="M33.058 6.743c-.023-1.318-.07-1.364-1.5-1.588-.4-1.4-1.194-2.169-2.391-2.174q-7.414-.026-14.828 0a2.384 2.384 0 00-2.256 1.7c-.057.172-.111.344-.159.5-1.394.125-1.422.156-1.424 1.543V8.34c0 1.321.022 1.342 1.3 1.43.041 0 .079.041.119.064.623 1.782 1.182 2.168 3.1 2.167h13.493c1.887 0 2.492-.436 3.072-2.2 1.276-.147 1.276-.147 1.517-1.459 1.208-.176 1.363-.05 1.367 1.134v2.881c0 1.048-.084 1.134-1.11 1.134h-8.433a3.923 3.923 0 00-3.955 3.9c-.009.673 0 1.347 0 2.112h-1.182c-.817.011-1.063.235-1.065 1.033q-.012 3.9 0 7.8a3.144 3.144 0 00.3 1.376 3.822 3.822 0 001.326 1.393 5.106 5.106 0 00.649.384 2.163 2.163 0 001.5 0 4.914 4.914 0 00.707-.418 3.478 3.478 0 001.407-1.668 2.607 2.607 0 00.128-.786c.035-2.739.011-5.478.015-8.217a.792.792 0 00-.907-.9h-1.344v-2.066a2.142 2.142 0 012.43-2.406c2.692 0 5.385-.048 8.076.017a2.8 2.8 0 002.986-1.824V8.44a2.67 2.67 0 00-2.938-1.697zm-3.1 3.215a2.192 2.192 0 01-.11.4 5.853 5.853 0 01-.878.133q-7.2.012-14.4 0c-.9 0-1.054-.164-1.057-1.07 0-1.334-.007-2.669 0-4 0-.734.181-.915.915-.915q7.34-.007 14.681 0c.474 0 .857.106.858.676.001 1.593-.006 3.184-.013 4.776zm-8.1 20.01a1.3 1.3 0 01-1.542-1.406h2.856a1.238 1.238 0 01-1.324 1.406zm1.335-8.921v5.917h-2.88v-5.917z"/><path data-name="Контур 25" d="M1.547 0l-.021 15.947v6.393c0 1.091.5 1.643 1.462 1.655.945.011 1.488-.579 1.5-1.633v-1.264a.755.755 0 01.813-.848c1.218-.013 2.436-.021 3.653 0 .628.011.815.432.811 1a461.173 461.173 0 00-.019 5.127c.006 1.473.575 2.034 2.026 2.045a1.6 1.6 0 001.7-1.655c.035-.607 0-1.217.014-1.826.013-.693.234-.921.932-.933.819-.014 1.639 0 2.459 0a2.781 2.781 0 01.331.048v1.438h-2.193c0 .425.011.767 0 1.108a3.385 3.385 0 11-6.768.014c-.022-1.334 0-2.669 0-4v-.792H6.055c-.014.267-.023.495-.038.723a3.3 3.3 0 01-2.385 2.9 3.007 3.007 0 01-3.247-1.562c-.149-.26-.261-.542-.389-.814V.008z"/><path data-name="Контур 26" d="M27 0v1.481h-1.547V0z"/><path data-name="Контур 27" d="M5.275 4.516h1.431v9.693H5.275z"/><path data-name="Контур 28" d="M13.529 13.514h1.438v5.194H13.53z"/><path data-name="Контур 29" d="M6.723 15.79v1.443H5.277V15.79z"/><path data-name="Контур 30" d="M13.515 21.729v-1.438h1.448v1.441z"/><path data-name="Контур 31" d="M27.046 7.512h1.426v1.446h-1.426z"/><path data-name="Контур 32" d="M24.055 7.517h1.385v1.434h-1.385z"/></g></svg>