<svg xmlns="http://www.w3.org/2000/svg" width="46.075" height="29.757"><g data-name="Сгруппировать 61" fill="#0e0e0e"><path data-name="Контур 63" d="M6.161 20.863a2.506 2.506 0 01-.223-.339 1.337 1.337 0 01-.035-.333l10.909-5.086.3.652zm22.576-5.659a2.7 2.7 0 01.223-.332l11.228 5.1-.295.655-11.21-5.09a1.459 1.459 0 01.054-.337zm-3.121-.73a9.233 9.233 0 01-1.5.221c-.385.034-.776.007-1.164.007l-.005.07c-.771-.072-1.548-.1-2.312-.224-1.327-.208-1.8-.991-1.489-2.317a3.354 3.354 0 011.334-1.954 4.238 4.238 0 015.482.477 3.391 3.391 0 01.88 1.828 1.543 1.543 0 01-1.226 1.892z"/><path data-name="Контур 64" d="M45.902 22.894v-.009a.91.91 0 01.106-.142c.019-.048.037-.1.059-.142v-.042a2.227 2.227 0 01-.222-.505 11.11 11.11 0 00-2.62-3.413 4.625 4.625 0 00-1.243-.844c-4.038-1.784-8.088-3.541-12.133-5.308-.394-.172-.779-.363-1.352-.631 1.283-.44 2.374-.816 3.467-1.183a.837.837 0 01.352-.022c.622.073 1.242.164 1.864.234 1.031.117 2.063.222 3.163.34l.118-.991c-.311-.068-.512-.13-.718-.155-1.036-.127-2.073-.245-3.11-.364a4.991 4.991 0 00-3.3.371c-1.038.361-2.072.73-3.13 1.1L27.56 13c.25.116.489.233.732.34 3.99 1.745 7.966 3.523 11.98 5.213a7.474 7.474 0 013.229 2.445c.314.423.616.856.953 1.325-.216.083-.323.132-.435.167a3.325 3.325 0 01-.43.119 22.742 22.742 0 01-10.111-.394 7.706 7.706 0 01-3.225-1.688 14.8 14.8 0 01-3.661-5.039c-.08-.182-.183-.354-.271-.522a11.308 11.308 0 01-3.416.417 10.6 10.6 0 01-3.357-.422 3.694 3.694 0 00-.188.347 14.474 14.474 0 01-2.053 3.454 9.294 9.294 0 01-5.841 3.69 53.04 53.04 0 01-2.471.384 22.041 22.041 0 01-5.982-.1 2.6 2.6 0 01-1.509-.468 11.154 11.154 0 011.894-2.4 3.921 3.921 0 011.314-.9q6.485-2.813 12.954-5.665c.24-.1.47-.232.667-.33l.343-1.759c-.222-.1-.433-.2-.654-.277-1.126-.392-2.26-.764-3.381-1.17a2.739 2.739 0 00-1.48-.138c-.732.132-1.482.16-2.223.247-.821.1-1.64.21-2.534.325l.152 1.034c1.2-.144 2.3-.256 3.386-.411a5.545 5.545 0 013.4.306 14.259 14.259 0 001.345.485 6.033 6.033 0 01.58.3c-.28.13-.467.221-.658.3-3.934 1.724-7.851 3.49-11.813 5.147a7.838 7.838 0 00-3.249 2.431c-.565.722-1.038 1.517-1.552 2.28v.9a4.646 4.646 0 002.806 1.193 22.29 22.29 0 0010.487-.788 25.265 25.265 0 002.986-1.45 7.159 7.159 0 01-.492.969 2.4 2.4 0 00-.393 1.431c-.006 1.044-.1 2.088-.089 3.132a1.034 1.034 0 01-.639 1.056 4.228 4.228 0 00-.534.376l.53.854c.519-.318 1.015-.582 1.456-.918a.922.922 0 00.221-.627c.062-1.252.112-2.505.133-3.759a2.106 2.106 0 01.346-1.173c.519-.792 1.005-1.605 1.525-2.443.166.979.284 1.884.48 2.772a6.387 6.387 0 001.217 2.567 5.372 5.372 0 00.727.785 3.16 3.16 0 004.384-.016 5.869 5.869 0 001.563-2.262 9.679 9.679 0 00.728-3.81c.345.139.414.443.555.666a10.16 10.16 0 011.31 2.227 10 10 0 01.148 2.487c.028.656.081 1.312.083 1.967a.812.812 0 00.456.795c.388.213.76.456 1.214.731l.524-.761c-.047-.1-.052-.146-.071-.153-1.04-.378-1.13-1.24-1.126-2.167 0-.777-.055-1.553-.032-2.329a2.4 2.4 0 00-.44-1.5 5.733 5.733 0 01-.435-.889 14.12 14.12 0 004.96 2.01 23.675 23.675 0 009.057.112 3.531 3.531 0 002.262-1.164zm-21.248.616h-3.771v-.9c1.25-.044 2.48-.014 3.771-.011zm1.229-2.919h-6v-.813h6z"/><path data-name="Контур 65" d="M17.386 7.804c.4.7.882 1.35 1.334 2.018.146.216.316.417.478.629 1.958-1.845 4.667-2.51 7.525-.011.175-.24.355-.471.518-.713.717-1.066 1.417-2.144 2.15-3.2a7.009 7.009 0 01.926-1.081c1-.946 2.021-1.864 3.028-2.8.167-.155.3-.341.542-.611l-.706-.66c-.8.726-1.5 1.419-2.261 2.037a15.465 15.465 0 00-3.465 4.069c-.3.5-.65.98-1.066 1.6a3.283 3.283 0 00-2.138-3.08 2.461 2.461 0 01.771-2.387c.727-.663 1.371-1.417 2.043-2.14.216-.232.4-.49.6-.729l-.57-.675-.052-.038a1.03 1.03 0 01-.124.015c-1 1.073-1.9 2.1-2.876 3.058a2.716 2.716 0 00-.882 1.867 1.37 1.37 0 01-.257.769 1.546 1.546 0 01-.135-.433 3.3 3.3 0 00-1.17-2.48c-.894-.847-1.7-1.794-2.589-2.756a.725.725 0 01-.077-.067c-.018 0-.034-.008-.051-.012l-.013.008h.007l-.651.748c.232.274.431.53.652.766.673.721 1.319 1.473 2.042 2.141a2.4 2.4 0 01.717 2.375 3.2 3.2 0 00-2.131 3.031c-.8-1.2-1.488-2.244-2.194-3.277a5.785 5.785 0 00-.736-.894c-.622-.6-1.27-1.179-1.912-1.761s-1.275-1.145-1.944-1.744l-.692.768c.688.632 1.331 1.248 2 1.833a14.98 14.98 0 013.359 3.817z"/><path data-name="Контур 66" d="M16.383 21.879a.1.1 0 01-.034.009l.058-.065c-.008.019-.01.049-.024.056z"/><path data-name="Контур 67" d="M29.495 21.825c.018 0 .045 0 .053.012a.129.129 0 01.016.03z"/><path data-name="Контур 68" d="M22.945 14.771c-.771-.072-1.548-.1-2.312-.224-1.327-.208-1.8-.991-1.489-2.317a3.354 3.354 0 011.334-1.954 4.238 4.238 0 015.482.477 3.389 3.389 0 01.88 1.828 1.543 1.543 0 01-1.224 1.893 9.233 9.233 0 01-1.5.221c-.385.034-.776.007-1.164.007z"/><path data-name="Контур 69" d="M40.189 19.969l-.295.655-11.21-5.09a1.467 1.467 0 01.053-.331 2.685 2.685 0 01.224-.332z"/><path data-name="Контур 70" d="M16.812 15.105l.3.652-10.951 5.106a2.506 2.506 0 01-.223-.339 1.335 1.335 0 01-.035-.333z"/><path data-name="Контур 71" d="M16.322 21.918l.084-.094c-.007.02-.01.049-.024.056a.264.264 0 01-.082.014z"/><path data-name="Контур 72" d="M29.605 21.892l-.11-.066c.018 0 .045 0 .053.012a.332.332 0 01.034.078z"/></g></svg>