<svg xmlns="http://www.w3.org/2000/svg" width="40.579" height="30.436"><g data-name="Сгруппировать 66"><path data-name="Контур 103" d="M39.143 7.252v1.442c.254 0 .492-.011.729 0a.727.727 0 01-.017 1.453c-.09.005-.181 0-.272 0h-.428a13.451 13.451 0 00-.029 1.443c.28 0 .533-.018.783 0a.722.722 0 01.529 1.147.691.691 0 01-.578.3h-.7a2.881 2.881 0 00-.037.72c-.006.224 0 .448 0 .723.276 0 .529-.017.779 0a.722.722 0 01.538 1.143.685.685 0 01-.575.307h-.695a2.15 2.15 0 00-.046.713c-.008.224 0 .449 0 .72.27 0 .521 0 .771.012a.727.727 0 01.521 1.174.694.694 0 01-.589.28h-.686v1.432c.246 0 .5 0 .746.012a.727.727 0 01-.053 1.453h-.689v1.4a2.4 2.4 0 00.691.039.727.727 0 01.052 1.454c-.238.016-.478 0-.74 0v1.444c.266 0 .52-.017.771 0a.706.706 0 01.652.734.714.714 0 01-.677.713c-.12.01-.241 0-.362 0h-.383v1.44c.228 0 .451.01.673 0a.747.747 0 01.752.737.772.772 0 01-.765.728c-1.644-.014-3.288-.005-4.932-.005H1.07c-.136 0-.273.009-.408 0a.727.727 0 01.015-1.448c.239-.017.479 0 .746 0a13.863 13.863 0 00.03-1.444c-.281 0-.534.018-.784 0a.723.723 0 01-.531-1.146.69.69 0 01.578-.3h.7a2.73 2.73 0 00.038-.719c.007-.224 0-.448 0-.724-.276 0-.528.013-.778 0a.681.681 0 01-.619-.455.692.692 0 01.107-.722.67.67 0 01.546-.273h.694a2.075 2.075 0 00.047-.712c.009-.224 0-.449 0-.721-.27 0-.521 0-.771-.012a.728.728 0 01.066-1.453h.686v-1.406a3.744 3.744 0 00-.745-.035.7.7 0 01-.626-.446.725.725 0 01.678-1.009h.691v-1.4a2.353 2.353 0 00-.691-.039.728.728 0 01-.053-1.454c.238-.016.478 0 .766 0v-1.444c-.291 0-.544.015-.8 0a.675.675 0 01-.608-.469.693.693 0 01.124-.72.682.682 0 01.553-.26h.724v-1.441c-.255 0-.478-.01-.7 0a.731.731 0 11.012-1.461c.208.016.419 0 .656 0a3.385 3.385 0 00.03-.723c.005-.223 0-.447 0-.72-.279 0-.531.013-.782 0a.68.68 0 01-.615-.459.693.693 0 01.11-.722.676.676 0 01.548-.271h.7a2.368 2.368 0 00.043-.716c.008-.224 0-.448 0-.717-.273 0-.526.008-.776-.013a.723.723 0 01-.545-1.14.686.686 0 01.573-.31c.226-.005.452 0 .695 0a1.943 1.943 0 00.05-.709c.01-.224 0-.45 0-.724-.267 0-.519.007-.768-.012A.723.723 0 01.12.326.689.689 0 01.645.012c.12-.011.241 0 .362 0h38.469a3.886 3.886 0 01.452.006.728.728 0 01-.016 1.445c-.134.014-.271 0-.407.005h-.371v1.4a2.866 2.866 0 00.7.035.731.731 0 01.727.617.722.722 0 01-.684.837c-.237.016-.477 0-.737 0v1.4a2.169 2.169 0 00.687.041.732.732 0 01.733.61.72.72 0 01-.676.843c-.23.015-.47.001-.741.001zm-1.495-5.763c-.838-.075-34.387-.047-34.73.029v27.375c0 .012.015.024.025.035a.3.3 0 00.023.023h34.682z"/><path data-name="Контур 104" d="M20.266 27.533c-4.963 0-9.927-.009-14.89.01-.7 0-1.037-.261-1.034-1.057q.027-11.292.011-22.584v-.226a.721.721 0 01.753-.775h30.369a.717.717 0 01.752.73c.005.09 0 .181 0 .272v22.855a.721.721 0 01-.8.773c-1.147.005-2.293 0-3.44 0q-5.86.002-11.721.002zM9.022 6.513c.134.142.234.252.338.357.65.651 1.3 1.3 1.953 1.951a.732.732 0 01.273.723 1.192 1.192 0 01-.3.49c-.662.681-1.339 1.348-2.01 2.021-.082.082-.156.173-.244.271.123.129.223.239.329.344q.974.977 1.952 1.951a.729.729 0 01.23.853 1.356 1.356 0 01-.293.394c-.657.666-1.321 1.324-1.981 1.987-.081.082-.152.175-.284.329a3.716 3.716 0 01.378.289q.982.97 1.952 1.951a.737.737 0 01-.005 1.182c-.052.055-.106.107-.16.16l-1.887 1.889c-.081.081-.149.176-.233.276.629.628 1.247 1.226 1.839 1.848a.932.932 0 00.75.3q9.321-.013 18.642-.007h.547c-.13-.139-.218-.239-.311-.333-.415-.417-.836-.828-1.246-1.25a.738.738 0 01.008-1.182c.062-.066.127-.128.191-.192l1.855-1.857c.081-.081.148-.175.253-.3-.135-.117-.255-.209-.362-.315a359.02 359.02 0 01-1.951-1.952.732.732 0 01-.012-1.15c.062-.066.127-.128.192-.192l1.791-1.792c.1-.1.2-.215.322-.341-.115-.123-.212-.234-.317-.339-.638-.641-1.265-1.3-1.924-1.915a.822.822 0 010-1.291c.659-.619 1.286-1.274 1.924-1.915.1-.1.2-.215.316-.339-.118-.125-.217-.236-.322-.341-.607-.609-1.2-1.235-1.829-1.818a.868.868 0 01.012-1.482c.479-.433.919-.91 1.43-1.422H11.401a.455.455 0 00-.363.137c-.652.665-1.316 1.323-2.016 2.022zm25.733-2.157c-.529 0-1.011.011-1.493 0a.719.719 0 00-.594.239c-.543.566-1.105 1.113-1.659 1.669-.082.083-.156.173-.245.272.123.129.224.239.329.344.66.662 1.327 1.318 1.981 1.987a.724.724 0 01.006 1.117c-.061.067-.128.129-.192.193l-1.887 1.889c-.082.082-.151.175-.283.328a3.8 3.8 0 01.378.289c.644.636 1.269 1.291 1.927 1.913a.794.794 0 01-.013 1.254c-.069.058-.128.127-.193.191l-1.823 1.825c-.08.081-.148.175-.231.275l2.038 2.036c.117.117.243.228.347.355a.72.72 0 01.01.953 2.81 2.81 0 01-.22.228l-1.856 1.857c-.1.1-.2.215-.319.339.094.1.17.193.252.276.448.449.923.872 1.335 1.352a1.386 1.386 0 001.33.55c.351-.046.713 0 1.073-.017zM9.815 9.423c-.115-.123-.212-.234-.316-.339-.639-.641-1.265-1.295-1.924-1.914a.815.815 0 010-1.289c.435-.395.836-.826 1.25-1.244.075-.076.14-.161.224-.26a20 20 0 00-3.234.046v21.573c0 .012.015.025.023.035s.021.021.03.03h3.2c-.117-.125-.2-.225-.3-.319-.415-.417-.836-.828-1.245-1.249a.738.738 0 01.007-1.182c.062-.065.127-.128.192-.192l1.854-1.856c.081-.081.149-.176.256-.3-.135-.116-.256-.207-.362-.313-.61-.605-1.2-1.232-1.829-1.816a.847.847 0 01.021-1.446c.058-.048.107-.106.16-.159l1.79-1.792a2.672 2.672 0 00.193-.245l-2.034-2.033c-.117-.117-.243-.228-.348-.355a.719.719 0 01-.008-.952 2.7 2.7 0 01.219-.228l1.854-1.856c.11-.109.21-.219.327-.345z"/><path data-name="Контур 105" d="M27.271 15.196a.619.619 0 01-.2.541c-.055.051-.107.107-.16.16q-2.976 2.976-5.954 5.949a1.245 1.245 0 01-.469.331.729.729 0 01-.775-.234c-.479-.5-.978-.985-1.469-1.475q-2.3-2.3-4.6-4.611a1.213 1.213 0 01-.313-.477.705.705 0 01.231-.734c.585-.567 1.155-1.149 1.731-1.725q2.176-2.176 4.354-4.349a1.15 1.15 0 01.43-.311.677.677 0 01.746.186c.03.034.064.064.1.1l6.048 6.047c.164.169.338.338.3.602zm-6.944 5.182c.963-.847 4.959-4.9 5.125-5.2-.847-.964-4.9-4.962-5.2-5.127-.988.87-4.961 4.9-5.1 5.15z"/><path data-name="Контур 106" d="M20.295 18.118a.743.743 0 01-.546-.234c-.714-.713-1.433-1.42-2.136-2.143a.694.694 0 010-1.048q1.055-1.084 2.139-2.14a.706.706 0 011.081 0q1.082 1.057 2.138 2.14a.694.694 0 010 1.047c-.715.733-1.443 1.452-2.17 2.173a.661.661 0 01-.506.205zm-.063-1.848l1.08-1.076-1.044-1.09c-.186.186-.371.359-.543.545a2.98 2.98 0 00-.522.565z"/></g></svg>