<svg xmlns="http://www.w3.org/2000/svg" width="31.803" height="34.672"><g data-name="Сгруппировать 62"><path data-name="Контур 74" d="M29.167 33.474h1.818a1.908 1.908 0 01.337.013.6.6 0 01.48.591.578.578 0 01-.526.541 2.854 2.854 0 01-.3.008c-3.578.013-7.156.032-10.734.037q-8.559.012-17.117.006c-.825 0-1.649-.024-2.474-.046a.893.893 0 01-.392-.1.543.543 0 01-.247-.581.572.572 0 01.521-.466c.174-.015.35-.006.525-.006h1.091c0-.16.011-.3.011-.45V1.375c0-.113-.006-.226 0-.337a1.048 1.048 0 01.865-.992 3.186 3.186 0 01.483-.047h7.583q8.351.015 16.7.037c.138 0 .276 0 .413.01a.975.975 0 01.914.844 3.91 3.91 0 01.04.6v31.533zm-1.207-.02c.064-.627.04-31.967-.027-32.261H12.219c-.1 0-.2.006-.3.011-.01 0-.02.013-.029.021a.241.241 0 00-.021.022v32.208zM3.392 1.204c-.066.622-.043 31.974.02 32.245h7.26c.066-.56.044-31.974-.022-32.245z"/><path data-name="Контур 75" d="M25.904 9.513v5.816a1.064 1.064 0 01-1.126 1.121c-2.026-.018-4.052-.006-6.078-.006h-3.6a1.151 1.151 0 01-.712-.184 1.032 1.032 0 01-.441-.751 2.7 2.7 0 01-.006-.3V3.84a2.557 2.557 0 01.014-.412.99.99 0 01.934-.831c.536-.024 1.074-.016 1.611-.021.362 0 .725-.011 1.087-.01.249 0 .5.02.747.019.812 0 1.624-.019 2.436-.019s1.623.014 2.434.02c.575 0 1.149.009 1.724 0a1 1 0 01.945.772 1.972 1.972 0 01.029.485q.004 2.842.002 5.67zm-4.484 5.769c.062-.5.045-11.25-.015-11.522h-2.98c-.065.5-.049 11.241.018 11.522zM15.09 3.74v.3l.012 11.179c0 .01.014.02.022.029l.037.041h.7c.225 0 .451.008.675 0a2.08 2.08 0 00.682-.039V3.75c-.095 0-.168-.012-.241-.012zm7.535 0v11.532h2.107V3.74h-2.107z"/><path data-name="Контур 76" d="M19.955 20.476h4.729a2.009 2.009 0 01.448.029 1 1 0 01.766.951c.016.487.008.976.008 1.463v7.356a1.123 1.123 0 01-1.261 1.259c-3.128-.024-6.256-.011-9.384-.011h-.112a1.1 1.1 0 01-1.216-1.194c.034-.912.008-1.826.008-2.74v-5.893c0-.1 0-.2.006-.3a1.033 1.033 0 01.94-.917c.112-.009.225-.006.338-.006zm-1.546 9.847a19.837 19.837 0 003.045-.01V21.88c0-.062-.007-.124-.013-.187 0-.01-.012-.02-.02-.029a.342.342 0 00-.027-.025 21.632 21.632 0 00-2.985.039zm-3.277-8.679c-.07.446-.055 8.427.014 8.7a10.911 10.911 0 002.1-.025v-8.437c0-.062-.006-.125-.012-.187 0-.01-.014-.019-.021-.029a.265.265 0 00-.018-.02zm7.522.006c-.073.365-.065 8.407.005 8.69a11.435 11.435 0 002.077-.017c.068-.893.036-8.405-.041-8.7h-1.9a.816.816 0 00-.141.027z"/><path data-name="Контур 77" d="M15.014 17.871h1.163a1.305 1.305 0 01.367.05.563.563 0 01.005 1.075 1.065 1.065 0 01-.329.051h-2.513a.615.615 0 01-.633-.566.6.6 0 01.628-.607c.437-.017.875 0 1.312 0z"/><path data-name="Контур 78" d="M9.317 9.987v6.043a4.451 4.451 0 01-.014.449.991.991 0 01-.776.857 2.937 2.937 0 01-.522.046q-.976.008-1.952 0a3.16 3.16 0 01-.448-.035 1.008 1.008 0 01-.885-.926 2.761 2.761 0 01-.007-.3V3.81a1.859 1.859 0 01.03-.41 1.066 1.066 0 011.142-.831c.775 0 1.549.017 2.324.016a1.053 1.053 0 01.866.365.879.879 0 01.231.541c.005.138.01.275.01.413l.001 6.083zm-3.422-6.23c-.069.712-.043 12.164.024 12.431a13.124 13.124 0 002.228-.032c.062-.845.034-12.105-.033-12.4z"/><path data-name="Контур 79" d="M9.316 25.56v4.915a1.02 1.02 0 01-1.075 1.052c-.813.009-1.626 0-2.439 0h-.075a1.05 1.05 0 01-1.01-1.013c-.012-.25 0-.5 0-.75v-8.893a3.464 3.464 0 01.008-.375 1 1 0 01.967-.923c.4-.019.8-.01 1.2-.01.475 0 .951.01 1.426 0a1.026 1.026 0 011 1c-.011.613 0 1.226 0 1.839l-.002 3.158zm-1.168-4.824H5.865v9.232c0 .131-.046.276.062.389h2.219z"/></g></svg>