<svg xmlns="http://www.w3.org/2000/svg" width="36" height="31.622" viewBox="0 0 36 31.622">
  <g id="Сгруппировать_56" data-name="Сгруппировать 56" transform="translate(-759.492 -1934.643)">
    <path id="Контур_24" data-name="Контур 24" d="M856.71,1959.531c-.023-1.318-.07-1.364-1.5-1.588-.4-1.4-1.194-2.169-2.391-2.174q-7.414-.026-14.828,0a2.384,2.384,0,0,0-2.256,1.7c-.057.172-.111.344-.159.5-1.394.125-1.422.156-1.424,1.543q0,.808,0,1.616c0,1.321.022,1.342,1.3,1.43.041,0,.079.041.119.064.623,1.782,1.182,2.168,3.1,2.167q6.746,0,13.493,0c1.887,0,2.492-.436,3.072-2.2,1.276-.147,1.276-.147,1.517-1.459,1.208-.176,1.363-.05,1.367,1.134,0,.961,0,1.921,0,2.881,0,1.048-.084,1.134-1.11,1.134q-4.217,0-8.433,0a3.923,3.923,0,0,0-3.955,3.9c-.009.673,0,1.347,0,2.112-.444,0-.813,0-1.182,0-.817.011-1.063.235-1.065,1.033q-.012,3.9,0,7.8a3.144,3.144,0,0,0,.3,1.376,3.822,3.822,0,0,0,1.326,1.393,5.106,5.106,0,0,0,.649.384,2.163,2.163,0,0,0,1.5,0,4.914,4.914,0,0,0,.707-.418,3.478,3.478,0,0,0,1.407-1.668,2.607,2.607,0,0,0,.128-.786c.035-2.739.011-5.478.015-8.217a.792.792,0,0,0-.907-.9c-.436,0-.871,0-1.344,0,0-.758,0-1.412,0-2.066a2.142,2.142,0,0,1,2.43-2.406c2.692,0,5.385-.048,8.076.017a2.8,2.8,0,0,0,2.986-1.824v-4.781A2.67,2.67,0,0,0,856.71,1959.531Zm-3.1,3.215a2.192,2.192,0,0,1-.11.4,5.853,5.853,0,0,1-.878.133q-7.2.012-14.4,0c-.9,0-1.054-.164-1.057-1.07,0-1.334-.007-2.669,0-4,0-.734.181-.915.915-.915q7.34-.007,14.681,0c.474,0,.857.106.858.676C853.62,1959.563,853.613,1961.154,853.606,1962.746Zm-8.1,20.01a1.3,1.3,0,0,1-1.542-1.406h2.856A1.238,1.238,0,0,1,845.5,1982.756Zm1.335-8.921v5.917h-2.88v-5.917Z" transform="translate(-64.16 -18.145)" fill="#0e0e0e"/>
    <path id="Контур_25" data-name="Контур 25" d="M761.039,1934.643q-.011,7.974-.021,15.947,0,3.2,0,6.393c0,1.091.5,1.643,1.462,1.655.945.011,1.488-.579,1.5-1.633,0-.421,0-.843,0-1.264a.755.755,0,0,1,.813-.848c1.218-.013,2.436-.021,3.653,0,.628.011.815.432.811,1-.013,1.709-.025,3.418-.019,5.127.006,1.473.575,2.034,2.026,2.045a1.6,1.6,0,0,0,1.7-1.655c.035-.607,0-1.217.014-1.826.013-.693.234-.921.932-.933.819-.014,1.639,0,2.459,0a2.781,2.781,0,0,1,.331.048v1.438h-2.193c0,.425.011.767,0,1.108a3.385,3.385,0,1,1-6.768.014c-.022-1.334,0-2.669,0-4,0-.25,0-.5,0-.792h-2.192c-.014.267-.023.495-.038.723a3.3,3.3,0,0,1-2.385,2.9,3.007,3.007,0,0,1-3.247-1.562c-.149-.26-.261-.542-.389-.814v-23.063Z" transform="translate(0 0)" fill="#0e0e0e"/>
    <path id="Контур_26" data-name="Контур 26" d="M942.017,1934.643v1.481H940.47v-1.481Z" transform="translate(-155.525 0)" fill="#0e0e0e"/>
    <path id="Контур_27" data-name="Контур 27" d="M796.995,1966.753h1.431v9.693h-1.431Z" transform="translate(-32.228 -27.594)" fill="#0e0e0e"/>
    <path id="Контур_28" data-name="Контур 28" d="M855.688,2030.732h1.438v5.194h-1.437Z" transform="translate(-82.667 -82.575)" fill="#0e0e0e"/>
    <path id="Контур_29" data-name="Контур 29" d="M798.455,2046.913v1.443h-1.446v-1.443Z" transform="translate(-32.24 -96.48)" fill="#0e0e0e"/>
    <path id="Контур_30" data-name="Контур 30" d="M855.584,2080.338V2078.9h1.448v1.441Z" transform="translate(-82.577 -123.966)" fill="#0e0e0e"/>
    <path id="Контур_31" data-name="Контур 31" d="M951.792,1988.056h1.426v1.446h-1.426Z" transform="translate(-165.254 -45.901)" fill="#0e0e0e"/>
    <path id="Контур_32" data-name="Контур 32" d="M930.531,1988.088h1.385v1.434h-1.385Z" transform="translate(-146.984 -45.928)" fill="#0e0e0e"/>
  </g>
</svg>
