<svg xmlns="http://www.w3.org/2000/svg" width="46.075" height="29.757" viewBox="0 0 46.075 29.757">
  <g id="Сгруппировать_61" data-name="Сгруппировать 61" transform="translate(-1655.069 -2114.642)">
    <path id="Контур_63" data-name="Контур 63" d="M1688.21,2178.863a2.506,2.506,0,0,1-.223-.339,1.337,1.337,0,0,1-.035-.333l10.909-5.086.3.652Zm22.576-5.659a2.7,2.7,0,0,1,.223-.332l11.228,5.1-.295.655-11.21-5.09A1.459,1.459,0,0,1,1710.786,2173.2Zm-3.121-.73a9.233,9.233,0,0,1-1.5.221c-.385.034-.776.007-1.164.007l-.005.07c-.771-.072-1.548-.1-2.312-.224-1.327-.208-1.8-.991-1.489-2.317a3.354,3.354,0,0,1,1.334-1.954,4.238,4.238,0,0,1,5.482.477,3.391,3.391,0,0,1,.88,1.828A1.543,1.543,0,0,1,1707.665,2172.474Z" transform="translate(-26.98 -43.358)" fill="#0e0e0e"/>
    <path id="Контур_64" data-name="Контур 64" d="M1700.971,2181.392v0l0-.009a.91.91,0,0,1,.106-.142c.019-.048.037-.1.059-.142l0-.006v-.036a2.227,2.227,0,0,1-.222-.505,11.11,11.11,0,0,0-2.62-3.413,4.625,4.625,0,0,0-1.243-.844c-4.038-1.784-8.088-3.541-12.133-5.308-.394-.172-.779-.363-1.352-.631,1.283-.44,2.374-.816,3.467-1.183a.837.837,0,0,1,.352-.022c.622.073,1.242.164,1.864.234,1.031.117,2.063.222,3.163.34.044-.375.081-.679.118-.991-.311-.068-.512-.13-.718-.155-1.036-.127-2.073-.245-3.11-.364a4.991,4.991,0,0,0-3.3.371c-1.038.361-2.072.73-3.13,1.1l.357,1.812c.25.116.489.233.732.34,3.99,1.745,7.966,3.523,11.98,5.213a7.474,7.474,0,0,1,3.229,2.445c.314.423.616.856.953,1.325-.216.083-.323.132-.435.167a3.325,3.325,0,0,1-.43.119,22.742,22.742,0,0,1-10.111-.394,7.706,7.706,0,0,1-3.225-1.688,14.8,14.8,0,0,1-3.661-5.039c-.08-.182-.183-.354-.271-.522a11.308,11.308,0,0,1-3.416.417,10.6,10.6,0,0,1-3.357-.422,3.694,3.694,0,0,0-.188.347,14.474,14.474,0,0,1-2.053,3.454,9.294,9.294,0,0,1-5.841,3.69c-.821.145-1.645.278-2.471.384a22.041,22.041,0,0,1-5.982-.1,2.6,2.6,0,0,1-1.509-.468,11.154,11.154,0,0,1,1.894-2.4,3.921,3.921,0,0,1,1.314-.9q6.485-2.813,12.954-5.665c.24-.1.47-.232.667-.33l.343-1.759c-.222-.1-.433-.2-.654-.277-1.126-.392-2.26-.764-3.381-1.17a2.739,2.739,0,0,0-1.48-.138c-.732.132-1.482.16-2.223.247-.821.1-1.64.21-2.534.325l.152,1.034c1.2-.144,2.3-.256,3.386-.411a5.545,5.545,0,0,1,3.4.306,14.259,14.259,0,0,0,1.345.485,6.033,6.033,0,0,1,.58.3c-.28.13-.467.221-.658.3-3.934,1.724-7.851,3.49-11.813,5.147a7.838,7.838,0,0,0-3.249,2.431c-.565.722-1.038,1.517-1.552,2.28v.9a4.646,4.646,0,0,0,2.806,1.193,22.29,22.29,0,0,0,10.487-.788,25.265,25.265,0,0,0,2.986-1.45,7.159,7.159,0,0,1-.492.969,2.4,2.4,0,0,0-.393,1.431c-.006,1.044-.1,2.088-.089,3.132a1.034,1.034,0,0,1-.639,1.056,4.228,4.228,0,0,0-.534.376l.53.854c.519-.318,1.015-.582,1.456-.918a.922.922,0,0,0,.221-.627c.062-1.252.112-2.505.133-3.759a2.106,2.106,0,0,1,.346-1.173c.519-.792,1.005-1.605,1.525-2.443.166.979.284,1.884.48,2.772a6.387,6.387,0,0,0,1.217,2.567,5.372,5.372,0,0,0,.727.785,3.16,3.16,0,0,0,4.384-.016,5.869,5.869,0,0,0,1.563-2.262,9.679,9.679,0,0,0,.728-3.81c.345.139.414.443.555.666a10.16,10.16,0,0,1,1.31,2.227,10,10,0,0,1,.148,2.487c.028.656.081,1.312.083,1.967a.812.812,0,0,0,.456.795c.388.213.76.456,1.214.731l.524-.761c-.047-.1-.052-.146-.071-.153-1.04-.378-1.13-1.24-1.126-2.167,0-.777-.055-1.553-.032-2.329a2.4,2.4,0,0,0-.44-1.5,5.733,5.733,0,0,1-.435-.889,14.12,14.12,0,0,0,4.96,2.01,23.675,23.675,0,0,0,9.057.112A3.531,3.531,0,0,0,1700.971,2181.392Zm-21.248.616h-3.771v-.9c1.25-.044,2.48-.014,3.771-.011Zm1.229-2.919h-6v-.813h6Z" transform="translate(0 -43.856)" fill="#0e0e0e"/>
    <path id="Контур_65" data-name="Контур 65" d="M1727.425,2122.446c.4.7.882,1.35,1.334,2.018.146.216.316.417.478.629,1.958-1.845,4.667-2.51,7.525-.011.175-.24.355-.471.518-.713.717-1.066,1.417-2.144,2.15-3.2a7.009,7.009,0,0,1,.926-1.081c1-.946,2.021-1.864,3.028-2.8.167-.155.3-.341.542-.611l-.706-.66c-.8.726-1.5,1.419-2.261,2.037a15.465,15.465,0,0,0-3.465,4.069c-.3.5-.65.98-1.066,1.6a3.283,3.283,0,0,0-2.138-3.08,2.461,2.461,0,0,1,.771-2.387c.727-.663,1.371-1.417,2.043-2.14.216-.232.4-.49.6-.729l-.57-.675c-.018-.012-.035-.025-.052-.038a1.03,1.03,0,0,1-.124.015c-1,1.073-1.9,2.1-2.876,3.058a2.716,2.716,0,0,0-.882,1.867,1.37,1.37,0,0,1-.257.769,1.546,1.546,0,0,1-.135-.433,3.3,3.3,0,0,0-1.17-2.48c-.894-.847-1.7-1.794-2.589-2.756a.725.725,0,0,1-.077-.067c-.018,0-.034-.008-.051-.012l-.013.008h.007l-.651.748c.232.274.431.53.652.766.673.721,1.319,1.473,2.042,2.141a2.4,2.4,0,0,1,.717,2.375,3.2,3.2,0,0,0-2.131,3.031c-.8-1.2-1.488-2.244-2.194-3.277a5.785,5.785,0,0,0-.736-.894c-.622-.6-1.27-1.179-1.912-1.761s-1.275-1.145-1.944-1.744l-.692.768c.688.632,1.331,1.248,2,1.833A14.98,14.98,0,0,1,1727.425,2122.446Z" transform="translate(-54.97)" fill="#0e0e0e"/>
    <path id="Контур_66" data-name="Контур 66" d="M1746.167,2236.261a.1.1,0,0,1-.034.009l.058-.065C1746.183,2236.224,1746.181,2236.254,1746.167,2236.261Z" transform="translate(-74.715 -99.74)" fill="#0e0e0e"/>
    <path id="Контур_67" data-name="Контур 67" d="M1819.366,2236.214c.018,0,.045,0,.053.012a.129.129,0,0,1,.016.03Z" transform="translate(-134.802 -99.747)" fill="#0e0e0e"/>
    <path id="Контур_68" data-name="Контур 68" d="M1765.094,2172.771c-.771-.072-1.548-.1-2.312-.224-1.327-.208-1.8-.991-1.489-2.317a3.354,3.354,0,0,1,1.334-1.954,4.238,4.238,0,0,1,5.482.477,3.389,3.389,0,0,1,.88,1.828,1.543,1.543,0,0,1-1.224,1.893,9.233,9.233,0,0,1-1.5.221c-.385.034-.776.007-1.164.007Z" transform="translate(-87.08 -43.358)" fill="#0e0e0e"/>
    <path id="Контур_69" data-name="Контур 69" d="M1826.355,2202.579l-.295.655-11.21-5.09a1.467,1.467,0,0,1,.053-.331,2.685,2.685,0,0,1,.224-.332Z" transform="translate(-131.097 -67.968)" fill="#0e0e0e"/>
    <path id="Контур_70" data-name="Контур 70" d="M1698.861,2198.782l.3.652-10.951,5.106a2.506,2.506,0,0,1-.223-.339,1.335,1.335,0,0,1-.035-.333Z" transform="translate(-26.98 -69.035)" fill="#0e0e0e"/>
    <path id="Контур_71" data-name="Контур 71" d="M1745.887,2236.3l.084-.094c-.007.02-.01.049-.024.056a.264.264,0,0,1-.082.014Z" transform="translate(-74.496 -99.74)" fill="#0e0e0e"/>
    <path id="Контур_72" data-name="Контур 72" d="M1819.476,2236.281l-.11-.066c.018,0,.045,0,.053.012a.332.332,0,0,1,.034.078Z" transform="translate(-134.802 -99.747)" fill="#0e0e0e"/>
  </g>
</svg>
