<svg xmlns="http://www.w3.org/2000/svg" width="41.567" height="32.038" viewBox="0 0 41.567 32.038">
  <path id="Контур_102" data-name="Контур 102" d="M251.639,1921.114q0-7.691,0-15.383,0-6.6,0-13.2c0-.575.13-.748.669-.927a14.826,14.826,0,0,1,4.194-.7,12.366,12.366,0,0,1,2.534.192c.743.129,1.474.332,2.2.531a.718.718,0,0,1,.6.792c.005.208,0,.416,0,.656h31.36v1.5l-.02.011v2.856h.02v1.493l-.018,0v2.875h.018v1.5l-.034,0v2.867h.034v1.5l-.017,0v2.868h.017v1.466h-.015v2.9h.015v1.487a21.275,21.275,0,0,0,0,2.744v1.605h-31.36c0,.217,0,.4,0,.573a.768.768,0,0,1-.655.892,14.662,14.662,0,0,1-4.194.7,13.745,13.745,0,0,1-3.071-.281c-.577-.113-1.146-.28-1.711-.447a.717.717,0,0,1-.574-.77C251.636,1921.327,251.639,1921.22,251.639,1921.114Zm10.214-1.89c.016.016.026.027.038.037s.023.024.035.025c.121,0,.242.01.364.01h29.381v-24.734H261.878a2.9,2.9,0,0,0-.032.705c-.007.224,0,.449,0,.722H283.3c.926,0,1.066.146,1.131,1.056a5.077,5.077,0,0,0,4.233,4.687c.283.045.571.06.858.083a.73.73,0,0,1,.727.722c.005.076,0,.152,0,.227q0,4.142,0,8.285c0,.091.005.183,0,.273a.724.724,0,0,1-.794.7,5.107,5.107,0,0,0-4.953,4.3,6.516,6.516,0,0,0-.075.721.737.737,0,0,1-.829.8q-2.709.006-5.417,0H261.853Zm15.987-19.892a.893.893,0,0,1,1.494-.009c2.271,2.3,4.564,4.576,6.849,6.861.021.021.041.045.065.064a.828.828,0,0,1-.006,1.359c-2.33,2.3-4.64,4.628-6.958,6.945a2.45,2.45,0,0,1-.231.219.718.718,0,0,1-.922,0,3.327,3.327,0,0,1-.3-.283l-6.148-6.147c-.116-.116-.237-.227-.376-.361-.136.128-.258.237-.373.353q-3.059,3.056-6.116,6.114c-.054.054-.107.108-.161.161-.469.457-.812.455-1.287-.015-.41-.405-.815-.815-1.224-1.222-.084-.084-.175-.161-.292-.268v3.217c.325.078,20.382.109,21.12.031a6.7,6.7,0,0,1,5.746-5.772c.071-.323.092-6.762.023-7.3a6.722,6.722,0,0,1-5.785-5.794h-21.1v3.229c.089-.073.167-.125.233-.19.431-.427.857-.86,1.289-1.286a.768.768,0,0,1,1.287.009q3.124,3.119,6.242,6.245a4.455,4.455,0,0,1,.33.426c.185-.174.307-.281.422-.4C273.728,1903.458,275.8,1901.408,277.84,1899.332Zm-5.374,7.562,6.139,6.139,6.136-6.138c-.134-.232-5.38-5.529-6.121-6.157Zm-10.621-1.788c.125-.109.214-.179.294-.258.43-.427.854-.861,1.289-1.284a.736.736,0,0,1,1.188-.007q1.391,1.375,2.766,2.766a.733.733,0,0,1,0,1.187q-1.375,1.39-2.766,2.766a.735.735,0,0,1-1.188,0c-.508-.5-1.007-1.006-1.558-1.558-.013.146-.027.239-.028.331,0,.561-.006,1.122,0,1.683a.523.523,0,0,0,.093.331c.675.694,1.363,1.375,2.011,2.024l6.182-6.18-6.17-6.169-.481.479c-.472.471-.939.948-1.418,1.412a.64.64,0,0,0-.226.512C261.854,1903.778,261.845,1904.414,261.845,1905.106Zm.449,1.814,1.8,1.8c.532-.532,1.089-1.087,1.644-1.643a.9.9,0,0,0,.081-.1l-1.794-1.793Zm-9.169,13.961a12.249,12.249,0,0,0,7.233.036v-28.022a13.148,13.148,0,0,0-7.233,0Z" transform="translate(-251.638 -1890.898)"/>
</svg>
