<svg xmlns="http://www.w3.org/2000/svg" width="31.803" height="34.672" viewBox="0 0 31.803 34.672">
  <g id="Сгруппировать_62" data-name="Сгруппировать 62" transform="translate(-1623.886 -1932.134)">
    <path id="Контур_74" data-name="Контур 74" d="M1653.053,1965.608c.645,0,1.232,0,1.818,0a1.908,1.908,0,0,1,.337.013.6.6,0,0,1,.48.591.578.578,0,0,1-.526.541,2.854,2.854,0,0,1-.3.008c-3.578.013-7.156.032-10.734.037q-8.559.012-17.117.006c-.825,0-1.649-.024-2.474-.046a.893.893,0,0,1-.392-.1.543.543,0,0,1-.247-.581.572.572,0,0,1,.521-.466c.174-.015.35-.006.525-.006h1.091c0-.16.011-.3.011-.45q0-8.033,0-16.067,0-7.789,0-15.579c0-.113-.006-.226,0-.337a1.048,1.048,0,0,1,.865-.992,3.186,3.186,0,0,1,.483-.047q3.791,0,7.583,0,8.351.015,16.7.037c.138,0,.276,0,.413.01a.975.975,0,0,1,.914.844,3.91,3.91,0,0,1,.04.6q0,9.2,0,18.394,0,6.569,0,13.139Zm-1.207-.02c.064-.627.04-31.967-.027-32.261h-15.714c-.1,0-.2.006-.3.011-.01,0-.02.013-.029.021a.241.241,0,0,0-.021.022v32.208Zm-24.568-32.25c-.066.622-.043,31.974.02,32.245h7.26c.066-.56.044-31.974-.022-32.245Z" transform="translate(0)"/>
    <path id="Контур_75" data-name="Контур 75" d="M1821.506,1973.3q0,2.8,0,5.591c0,.075,0,.15,0,.225a1.064,1.064,0,0,1-1.126,1.121c-2.026-.018-4.052-.006-6.078-.006-1.2,0-2.4,0-3.6,0a1.151,1.151,0,0,1-.712-.184,1.032,1.032,0,0,1-.441-.751,2.7,2.7,0,0,1-.006-.3q0-5.684,0-11.369a2.557,2.557,0,0,1,.014-.412.99.99,0,0,1,.934-.831c.536-.024,1.074-.016,1.611-.021.362,0,.725-.011,1.087-.01.249,0,.5.02.747.019.812,0,1.624-.019,2.436-.019s1.623.014,2.434.02c.575,0,1.149.009,1.724,0a1,1,0,0,1,.945.772,1.972,1.972,0,0,1,.029.485Q1821.508,1970.472,1821.506,1973.3Zm-4.484,5.769c.062-.5.045-11.25-.015-11.522h-2.98c-.065.5-.049,11.241.018,11.522Zm-6.33-11.542v.3q.006,5.589.012,11.179c0,.01.014.02.022.029l.037.041h.7c.225,0,.451.008.675,0a2.08,2.08,0,0,0,.682-.039v-11.5c-.095,0-.168-.012-.241-.012Zm7.535,0v11.532h2.107v-11.532h-2.107Z" transform="translate(-171.716 -31.653)"/>
    <path id="Контур_76" data-name="Контур 76" d="M1815.452,2204.826q2.364,0,4.729,0a2.009,2.009,0,0,1,.448.029,1,1,0,0,1,.766.951c.016.487.008.976.008,1.463q0,3.66,0,7.319c0,.013,0,.025,0,.037a1.123,1.123,0,0,1-1.261,1.259c-3.128-.024-6.256-.011-9.384-.011-.037,0-.075,0-.112,0a1.1,1.1,0,0,1-1.216-1.194c.034-.912.008-1.826.008-2.74q0-2.946,0-5.893c0-.1,0-.2.006-.3a1.033,1.033,0,0,1,.94-.917c.112-.009.225-.006.338-.006Zm-1.546,9.847a19.837,19.837,0,0,0,3.045-.01q0-4.211,0-8.433c0-.062-.007-.124-.013-.187,0-.01-.012-.02-.02-.029a.342.342,0,0,0-.027-.025,21.632,21.632,0,0,0-2.985.039Zm-3.277-8.679c-.07.446-.055,8.427.014,8.7a10.911,10.911,0,0,0,2.1-.025q0-4.214,0-8.437c0-.062-.006-.125-.012-.187,0-.01-.014-.019-.021-.029a.265.265,0,0,0-.018-.02Zm7.522.006c-.073.365-.065,8.407.005,8.69a11.435,11.435,0,0,0,2.077-.017c.068-.893.036-8.405-.041-8.7-.632,0-1.268,0-1.9,0A.816.816,0,0,0,1818.151,2206Z" transform="translate(-171.611 -252.216)"/>
    <path id="Контур_77" data-name="Контур 77" d="M1799.94,2170.106c.388,0,.775,0,1.163,0a1.305,1.305,0,0,1,.367.05.563.563,0,0,1,.005,1.075,1.065,1.065,0,0,1-.329.051c-.812,0-1.625,0-2.438,0-.025,0-.05,0-.075,0a.615.615,0,0,1-.633-.566.6.6,0,0,1,.628-.607c.437-.017.875,0,1.312,0Z" transform="translate(-161.04 -220.101)"/>
    <path id="Контур_78" data-name="Контур 78" d="M1691.247,1973.806q0,3.022,0,6.043a4.451,4.451,0,0,1-.014.449.991.991,0,0,1-.776.857,2.937,2.937,0,0,1-.522.046q-.976.008-1.952,0a3.16,3.16,0,0,1-.448-.035,1.008,1.008,0,0,1-.885-.926,2.761,2.761,0,0,1-.007-.3q0-6.156,0-12.311a1.859,1.859,0,0,1,.03-.41,1.066,1.066,0,0,1,1.142-.831c.775,0,1.549.017,2.324.016a1.053,1.053,0,0,1,.866.365.879.879,0,0,1,.231.541c.005.138.01.275.01.413Q1691.247,1970.766,1691.247,1973.806Zm-3.422-6.23c-.069.712-.043,12.164.024,12.431a13.124,13.124,0,0,0,2.228-.032c.062-.845.034-12.105-.033-12.4Z" transform="translate(-58.044 -31.685)"/>
    <path id="Контур_79" data-name="Контур 79" d="M1691.216,2198.6v4.652c0,.088,0,.176,0,.263a1.02,1.02,0,0,1-1.075,1.052c-.813.009-1.626,0-2.439,0-.025,0-.05,0-.075,0a1.05,1.05,0,0,1-1.01-1.013c-.012-.25,0-.5,0-.75q0-4.446,0-8.893a3.464,3.464,0,0,1,.008-.375,1,1,0,0,1,.967-.923c.4-.019.8-.01,1.2-.01.475,0,.951.01,1.426,0a1.026,1.026,0,0,1,1,1c-.011.613,0,1.226,0,1.839Q1691.217,2197.021,1691.216,2198.6Zm-1.168-4.824h-2.283c0,.139,0,.26,0,.382q0,1.275,0,2.55,0,3.149,0,6.3c0,.131-.046.276.062.389h2.219Z" transform="translate(-58.014 -240.906)"/>
  </g>
</svg>
