<?xml version="1.0" standalone="no"?>
<!DOCTYPE svg PUBLIC "-//W3C//DTD SVG 20010904//EN"
 "http://www.w3.org/TR/2001/REC-SVG-20010904/DTD/svg10.dtd">
<svg version="1.0" xmlns="http://www.w3.org/2000/svg"
 width="800.000000pt" height="800.000000pt" viewBox="0 0 800.000000 800.000000"
 preserveAspectRatio="xMidYMid meet">
<metadata>
Created by potrace 1.11, written by Peter Selinger 2001-2013
</metadata>
<g transform="translate(0.000000,800.000000) scale(0.100000,-0.100000)"
fill="#000000" stroke="none">
<path d="M3873 7978 c-156 -53 -260 -190 -270 -358 -3 -41 -5 -88 -5 -105 1
-16 1 -56 2 -89 1 -32 -1 -60 -4 -63 -2 -2 -1 -17 4 -32 4 -16 4 -34 0 -41 -4
-6 -4 -27 0 -46 4 -19 4 -36 0 -39 -5 -3 -5 -18 0 -34 4 -15 4 -34 0 -41 -4
-6 -4 -27 0 -45 4 -18 4 -39 -1 -46 -4 -7 -5 -17 -2 -21 2 -5 4 -39 3 -76 -1
-37 -1 -74 -1 -82 1 -8 0 -37 0 -65 -1 -27 -1 -62 0 -77 1 -28 1 -99 0 -160 0
-18 0 -59 1 -92 1 -32 -1 -60 -4 -63 -2 -2 -1 -17 4 -32 4 -16 4 -34 0 -41 -4
-6 -4 -27 0 -46 4 -19 4 -36 0 -39 -5 -3 -5 -18 0 -34 4 -15 4 -34 0 -41 -4
-6 -4 -27 0 -45 4 -18 4 -39 -1 -46 -4 -7 -5 -17 -2 -21 2 -5 4 -39 3 -76 -1
-37 -1 -74 -1 -82 1 -8 0 -37 0 -65 -1 -27 -1 -62 0 -77 1 -28 1 -97 0 -160 0
-54 0 -162 0 -178 0 -8 0 -44 0 -80 0 -36 0 -72 0 -80 1 -8 0 -37 0 -65 -1
-27 -1 -62 0 -77 1 -28 1 -99 0 -160 0 -18 0 -59 1 -92 1 -32 -1 -60 -4 -63
-2 -2 -1 -17 4 -32 4 -16 4 -34 0 -41 -4 -6 -4 -27 0 -46 4 -19 4 -36 0 -39
-5 -3 -5 -18 0 -34 4 -15 4 -34 0 -41 -4 -6 -4 -27 0 -45 4 -18 4 -39 -1 -46
-4 -7 -5 -17 -2 -21 2 -5 4 -39 3 -76 -1 -37 -1 -76 0 -87 2 -28 2 -33 0 -95
-2 -102 7 -215 20 -250 55 -147 187 -251 338 -267 62 -6 62 -6 97 1 17 3 40 8
52 10 12 3 32 10 45 17 13 8 25 14 28 14 48 7 159 126 189 204 21 53 36 158
32 221 -1 8 -1 26 0 40 0 14 1 36 1 50 0 14 -1 36 -1 50 -1 14 -1 33 -1 43 0
9 0 40 0 67 0 28 1 65 1 83 0 73 0 163 0 177 -1 8 0 38 0 65 1 28 1 62 0 78
-1 27 -1 96 0 160 0 73 0 163 0 177 -1 8 0 38 0 65 1 28 1 62 0 78 0 15 -1 50
-1 77 0 28 0 58 0 68 0 9 0 28 1 42 0 14 1 36 1 50 0 14 -1 36 -1 50 -1 14 -1
33 -1 43 0 9 0 40 0 67 0 28 1 65 1 83 0 73 0 163 0 177 -1 8 0 38 0 65 1 28
1 62 0 78 -1 27 -1 96 0 160 0 73 0 163 0 177 -1 8 0 38 0 65 1 28 1 62 0 78
0 15 -1 50 -1 77 0 28 0 58 0 68 0 9 0 28 1 42 0 14 1 36 1 50 0 14 -1 36 -1
50 -1 14 -1 33 -1 43 0 9 0 40 0 67 0 28 1 65 1 83 0 73 0 163 0 177 -1 8 0
38 0 65 1 28 1 62 0 78 -1 39 -1 122 1 155 2 53 -12 178 -23 211 -19 53 -59
120 -82 136 -12 8 -18 15 -13 15 14 0 -76 65 -116 83 -86 40 -202 46 -295 15z"/>
<path d="M2473 6674 c-55 -11 -196 -78 -265 -126 -14 -10 -29 -18 -32 -18 -7
0 -230 -150 -281 -189 -168 -129 -224 -178 -376 -326 -47 -46 -110 -112 -140
-146 -30 -34 -63 -73 -75 -85 -11 -13 -29 -35 -40 -50 -10 -14 -29 -38 -42
-52 -81 -95 -262 -378 -341 -532 -24 -47 -47 -89 -51 -95 -4 -5 -11 -21 -15
-34 -4 -14 -22 -56 -40 -95 -18 -39 -41 -93 -50 -121 -10 -27 -22 -55 -27 -61
-5 -7 -10 -20 -12 -30 -2 -11 -14 -48 -26 -84 -12 -36 -23 -69 -24 -75 -1 -5
-10 -37 -20 -70 -10 -33 -19 -67 -21 -75 -2 -8 -11 -44 -20 -80 -9 -36 -19
-76 -21 -90 -3 -14 -7 -38 -11 -55 -4 -16 -8 -39 -9 -50 -1 -11 -4 -33 -8 -50
-3 -16 -8 -50 -11 -75 -3 -25 -8 -56 -10 -70 -13 -71 -20 -218 -20 -415 0
-243 8 -373 31 -505 4 -19 8 -46 10 -60 12 -95 44 -241 85 -390 5 -19 11 -42
13 -50 13 -48 71 -215 108 -307 40 -100 193 -422 207 -433 3 -3 14 -21 25 -40
37 -69 207 -317 281 -410 165 -206 348 -391 552 -555 7 -5 18 -15 25 -20 24
-20 174 -130 189 -140 56 -36 108 -69 131 -86 15 -10 32 -19 38 -19 5 0 10 -5
10 -12 0 -6 3 -8 7 -5 3 4 14 0 23 -8 18 -16 308 -164 395 -201 61 -27 166
-68 180 -71 6 -1 47 -15 92 -31 133 -48 395 -114 508 -128 22 -3 47 -7 56 -10
9 -2 34 -7 55 -9 22 -3 55 -7 74 -10 132 -16 191 -19 405 -20 251 0 351 6 510
30 22 4 56 8 75 11 19 2 42 7 50 9 8 2 29 7 47 10 34 5 158 32 183 40 8 2 30
8 48 14 18 5 36 10 40 11 20 2 95 24 162 47 41 14 80 26 85 28 6 1 21 7 35 12
14 6 50 21 80 32 63 25 53 20 230 104 74 35 169 83 210 107 74 43 290 180 300
190 3 3 32 25 65 49 33 25 62 48 63 53 2 4 8 8 13 8 5 0 18 8 28 18 10 9 43
37 72 62 158 134 318 297 445 455 27 33 54 65 59 71 6 6 17 22 25 34 8 12 23
31 33 42 9 12 17 24 17 28 0 3 8 15 18 26 19 21 128 189 158 244 10 19 22 37
25 40 3 3 31 57 63 120 32 63 62 122 66 130 5 8 20 44 35 80 15 36 36 84 46
107 11 23 19 46 19 51 0 5 9 31 19 58 33 83 36 92 45 129 2 11 14 46 25 78 11
31 18 57 16 57 -2 0 1 15 6 33 6 17 12 39 14 47 7 23 46 202 49 225 7 45 28
181 31 201 13 80 20 231 20 429 -1 231 -8 356 -31 495 -8 53 -14 87 -18 120
-3 16 -7 38 -11 49 -3 10 -7 32 -9 47 -2 16 -12 58 -21 94 -9 36 -19 74 -21
86 -2 11 -13 49 -24 83 -19 60 -43 141 -44 151 -1 3 -7 19 -13 35 -24 57 -36
90 -39 100 -28 105 -275 591 -306 603 -4 2 -8 8 -8 14 0 9 -116 186 -130 198
-3 3 -21 26 -40 53 -18 26 -37 47 -42 47 -4 0 -8 5 -8 11 0 6 -6 16 -12 23 -7
8 -32 35 -54 62 -71 84 -84 97 -148 164 -103 106 -262 251 -331 303 -5 4 -23
19 -40 32 -98 82 -333 235 -497 324 -184 100 -360 85 -498 -43 -138 -127 -168
-337 -71 -496 29 -47 86 -110 101 -110 4 0 13 -7 20 -15 7 -9 29 -23 49 -32
42 -20 204 -114 211 -124 3 -3 16 -12 30 -19 24 -13 146 -102 187 -136 12 -11
37 -30 55 -44 58 -45 283 -273 349 -355 91 -113 149 -192 149 -205 0 -5 4 -10
8 -10 4 0 26 -30 47 -67 22 -37 45 -75 50 -84 33 -55 137 -268 167 -344 72
-179 148 -452 162 -580 3 -27 8 -61 10 -74 9 -41 17 -123 21 -203 1 -42 6 -81
9 -87 4 -6 4 -11 -1 -11 -10 0 -9 -153 1 -169 4 -6 3 -11 -1 -11 -5 0 -9 -21
-10 -47 -1 -72 -15 -189 -34 -298 -5 -33 -12 -69 -14 -80 -16 -98 -86 -332
-141 -470 -43 -109 -173 -361 -238 -460 -52 -79 -150 -213 -196 -268 -90 -109
-303 -318 -371 -365 -13 -9 -26 -19 -29 -23 -15 -21 -214 -158 -317 -217 -100
-59 -325 -170 -356 -176 -7 -2 -25 -9 -42 -16 -81 -34 -299 -100 -375 -113
-14 -3 -61 -12 -105 -22 -44 -9 -98 -18 -120 -20 -22 -2 -60 -6 -84 -10 -127
-19 -501 -19 -591 0 -14 3 -45 8 -70 11 -62 7 -129 18 -180 30 -14 3 -36 8
-50 11 -155 29 -408 118 -601 212 -194 95 -459 272 -594 396 -139 127 -230
223 -333 350 -4 6 -31 42 -60 80 -28 39 -56 75 -62 82 -5 7 -10 14 -10 16 0 2
-20 35 -45 73 -45 68 -174 317 -208 404 -10 25 -22 54 -27 65 -4 11 -13 36
-20 55 -7 19 -16 44 -21 55 -5 11 -11 29 -12 40 -2 11 -7 27 -10 35 -10 23
-57 214 -61 246 -3 16 -9 49 -14 74 -6 25 -13 68 -16 95 -3 28 -8 68 -11 90
-3 22 -7 79 -9 127 -3 48 -7 92 -11 98 -3 5 -2 10 3 10 5 0 6 17 2 40 -4 22
-5 42 -2 44 2 3 6 49 7 103 2 54 6 116 9 138 3 22 8 64 11 94 3 30 8 57 9 60
2 3 7 31 11 61 4 30 11 63 16 73 5 9 8 17 5 17 -2 0 2 24 10 53 8 28 16 64 19
78 3 14 25 84 49 155 113 330 251 580 475 859 66 83 301 321 360 365 18 14 48
37 66 53 18 15 38 27 44 27 6 0 11 4 11 9 0 14 204 146 338 218 88 48 163 117
194 181 12 26 23 49 24 52 0 3 3 12 7 20 3 8 8 32 11 52 3 21 6 41 7 45 1 4 0
10 -1 13 -1 3 -3 23 -4 45 -9 145 -126 291 -272 339 -69 22 -136 26 -211 10z"/>
</g>
</svg>
