<?xml version="1.0" encoding="utf-8"?><svg xmlns="http://www.w3.org/2000/svg" xmlns:xlink="http://www.w3.org/1999/xlink"><symbol viewBox="0 0 29.448 14.474" id="arrow-right" xmlns="http://www.w3.org/2000/svg"><path d="M20.636 4.607H.789A.789.789 0 000 5.396v3.681a.789.789 0 00.789.789h19.847v3.028a1.578 1.578 0 002.693 1.115l5.657-5.657a1.577 1.577 0 000-2.231L23.329.464a1.578 1.578 0 00-2.693 1.115z"/></symbol><symbol viewBox="0 0 14.687 12.851" id="burger" xmlns="http://www.w3.org/2000/svg"><path d="M.525 2.36h13.638a.525.525 0 00.525-.525V.525A.525.525 0 0014.163 0H.525A.524.524 0 000 .525v1.311a.525.525 0 00.525.525zm0 5.245h13.638a.525.525 0 00.525-.525V5.77a.525.525 0 00-.525-.525H.525A.525.525 0 000 5.77v1.311a.525.525 0 00.525.525zm0 5.245h13.638a.525.525 0 00.525-.525v-1.31a.525.525 0 00-.525-.525H.525a.525.525 0 00-.525.525v1.312a.525.525 0 00.525.524z"/></symbol><symbol viewBox="0 0 14.526 14.526" id="clock" xmlns="http://www.w3.org/2000/svg"><path d="M7.263 0a7.263 7.263 0 107.263 7.263A7.261 7.261 0 007.263 0zm0 13.12a5.857 5.857 0 115.857-5.857 5.856 5.856 0 01-5.857 5.857zm1.81-3.058L6.586 8.256a.354.354 0 01-.144-.284V3.163a.353.353 0 01.352-.352h.937a.353.353 0 01.352.352v4.15l1.954 1.424a.351.351 0 01.076.492l-.55.759a.354.354 0 01-.492.076z"/></symbol><symbol viewBox="0 0 40 32" id="email" xmlns="http://www.w3.org/2000/svg"><path d="M39.242 10.567a.468.468 0 01.758.391V28a3.882 3.882 0 01-3.75 4H3.75A3.882 3.882 0 010 28V10.967a.465.465 0 01.758-.391c1.75 1.449 4.07 3.291 12.039 9.466 1.649 1.284 4.43 3.983 7.2 3.967 2.789.025 5.626-2.733 7.211-3.967 7.969-6.175 10.281-8.025 12.031-9.476zM20 21.333c1.812.033 4.422-2.433 5.734-3.45C36.1 9.858 36.891 9.158 39.281 7.159A2.044 2.044 0 0040 5.583V4a3.882 3.882 0 00-3.75-4H3.75A3.882 3.882 0 000 4v1.583a2.059 2.059 0 00.719 1.575c2.391 1.991 3.18 2.7 13.547 10.725 1.312 1.017 3.922 3.484 5.734 3.45z"/></symbol><symbol viewBox="0 0 7.322 13.671" id="facebook" xmlns="http://www.w3.org/2000/svg"><path d="M6.842 7.69l.38-2.474H4.848V3.61a1.237 1.237 0 011.395-1.336h1.079V.167A13.172 13.172 0 005.406 0a3.02 3.02 0 00-3.232 3.33v1.885H0V7.69h2.173v5.981h2.675V7.69z"/></symbol><symbol viewBox="0 0 46 45.722" id="facebook-round" xmlns="http://www.w3.org/2000/svg"><path d="M46 22.999a23 23 0 10-26.594 22.723V29.648h-5.843v-6.649h5.843v-5.067c0-5.764 3.432-8.948 8.687-8.948a35.442 35.442 0 015.15.453v5.657h-2.9c-2.857 0-3.747 1.773-3.747 3.592v4.318h6.379l-1.02 6.649h-5.36v16.069A23.01 23.01 0 0046 22.999z"/></symbol><symbol viewBox="0 0 31.742 31.741" id="info-circle" xmlns="http://www.w3.org/2000/svg"><path d="M15.87 0a15.871 15.871 0 1015.872 15.87A15.872 15.872 0 0015.87 0zm0 7.039a2.688 2.688 0 11-2.688 2.688 2.688 2.688 0 012.688-2.69zm3.584 16.254a.768.768 0 01-.768.768h-5.632a.768.768 0 01-.768-.768v-1.536a.768.768 0 01.768-.768h.768v-4.1h-.768a.768.768 0 01-.768-.768v-1.532a.768.768 0 01.768-.768h4.1a.768.768 0 01.768.768v6.4h.768a.768.768 0 01.768.768v1.536z"/></symbol><symbol viewBox="0 0 24 32" id="map-marker" xmlns="http://www.w3.org/2000/svg"><path d="M10.767 31.355C1.685 18.189 0 16.838 0 12a12 12 0 0124 0c0 4.838-1.685 6.189-10.767 19.355a1.5 1.5 0 01-2.467 0zM12 17a5 5 0 10-5-5 5 5 0 005 5z"/></symbol><symbol viewBox="0 0 14.266 14.266" id="phone" xmlns="http://www.w3.org/2000/svg"><path d="M13.859 10.081l-3.12-1.337a.669.669 0 00-.78.192l-1.383 1.689a10.328 10.328 0 01-4.937-4.938l1.689-1.382a.667.667 0 00.192-.78L4.182.4a.673.673 0 00-.766-.383L.518.686A.669.669 0 000 1.338a12.928 12.928 0 0012.929 12.929.669.669 0 00.652-.518l.669-2.9a.677.677 0 00-.39-.769z"/></symbol></svg>