<?xml version="1.0" encoding="utf-8"?><svg xmlns="http://www.w3.org/2000/svg" xmlns:xlink="http://www.w3.org/1999/xlink"><symbol viewBox="0 0 29.448 14.474" id="arrow-right" xmlns="http://www.w3.org/2000/svg"><path d="M20.636 4.607H.789A.789.789 0 000 5.396v3.681a.789.789 0 00.789.789h19.847v3.028a1.578 1.578 0 002.693 1.115l5.657-5.657a1.577 1.577 0 000-2.231L23.329.464a1.578 1.578 0 00-2.693 1.115z"/></symbol><symbol viewBox="0 0 29.46 29.517" id="bodenbeläge" xmlns="http://www.w3.org/2000/svg"><g data-name="Сгруппировать 60"><path data-name="Контур 62" d="M0 0v29.517h29.46V0zm14.743 1.329h13.392V4.92H14.743zm-4.87 0h3.59v13.392h-3.59zm3.59 14.676v3.589H1.324v-3.589zM4.982 1.33h3.6v13.4H5.017a.219.219 0 01-.022-.019.042.042 0 01-.012-.023V1.45zm-1.271 0v13.4h-2.36a.177.177 0 01-.021-.018.043.043 0 01-.012-.023V1.333zm-2.38 19.548h12.132v3.592H1.349c-.046-.199-.062-3.058-.017-3.596zm12.14 6.065v1.2H1.327v-2.372c.217-.043 11.378-.061 12.144-.016zm1.265-20.715a.143.143 0 01.016-.017c.007-.006.015-.013.023-.013h13.357v3.6h-13.4zm3.66 21.91h-3.653v-12.14h3.62a.16.16 0 01.016.017c.005.007.013.016.013.024v1.089q.005 5.494.005 11.005zm4.868 0h-3.583a.085.085 0 01-.013-.014.048.048 0 01-.011-.024V16.006h3.61zm-.151-13.4h-8.371v-3.653h13.4v3.639c-.268.029-.542.01-.814.014s-.573 0-.859 0h-3.351zm5.08 13.122v.252c-.089.129-.194.088-.283.089h-3.347c-.048-.242-.069-11.464-.024-12.24h3.617a.994.994 0 01.035.182v1.174z"/></g></symbol><symbol viewBox="0 0 14.687 12.851" id="burger" xmlns="http://www.w3.org/2000/svg"><path d="M.525 2.36h13.638a.525.525 0 00.525-.525V.525A.525.525 0 0014.163 0H.525A.524.524 0 000 .525v1.311a.525.525 0 00.525.525zm0 5.245h13.638a.525.525 0 00.525-.525V5.77a.525.525 0 00-.525-.525H.525A.525.525 0 000 5.77v1.311a.525.525 0 00.525.525zm0 5.245h13.638a.525.525 0 00.525-.525v-1.31a.525.525 0 00-.525-.525H.525a.525.525 0 00-.525.525v1.312a.525.525 0 00.525.524z"/></symbol><symbol viewBox="0 0 14.526 14.526" id="clock" xmlns="http://www.w3.org/2000/svg"><path d="M7.263 0a7.263 7.263 0 107.263 7.263A7.261 7.261 0 007.263 0zm0 13.12a5.857 5.857 0 115.857-5.857 5.856 5.856 0 01-5.857 5.857zm1.81-3.058L6.586 8.256a.354.354 0 01-.144-.284V3.163a.353.353 0 01.352-.352h.937a.353.353 0 01.352.352v4.15l1.954 1.424a.351.351 0 01.076.492l-.55.759a.354.354 0 01-.492.076z"/></symbol><symbol viewBox="0 0 329.269 329" id="close" xmlns="http://www.w3.org/2000/svg"><path d="M194.8 164.77L323.013 36.555c8.343-8.34 8.343-21.825 0-30.164-8.34-8.34-21.825-8.34-30.164 0L164.633 134.605 36.422 6.391c-8.344-8.34-21.824-8.34-30.164 0-8.344 8.34-8.344 21.824 0 30.164l128.21 128.215L6.259 292.984c-8.344 8.34-8.344 21.825 0 30.164a21.266 21.266 0 0015.082 6.25c5.46 0 10.922-2.09 15.082-6.25l128.21-128.214 128.216 128.214a21.273 21.273 0 0015.082 6.25c5.46 0 10.922-2.09 15.082-6.25 8.343-8.34 8.343-21.824 0-30.164zm0 0"/></symbol><symbol viewBox="0 0 40 32" id="email" xmlns="http://www.w3.org/2000/svg"><path d="M39.242 10.567a.468.468 0 01.758.391V28a3.882 3.882 0 01-3.75 4H3.75A3.882 3.882 0 010 28V10.967a.465.465 0 01.758-.391c1.75 1.449 4.07 3.291 12.039 9.466 1.649 1.284 4.43 3.983 7.2 3.967 2.789.025 5.626-2.733 7.211-3.967 7.969-6.175 10.281-8.025 12.031-9.476zM20 21.333c1.812.033 4.422-2.433 5.734-3.45C36.1 9.858 36.891 9.158 39.281 7.159A2.044 2.044 0 0040 5.583V4a3.882 3.882 0 00-3.75-4H3.75A3.882 3.882 0 000 4v1.583a2.059 2.059 0 00.719 1.575c2.391 1.991 3.18 2.7 13.547 10.725 1.312 1.017 3.922 3.484 5.734 3.45z"/></symbol><symbol viewBox="0 0 7.322 13.671" id="facebook" xmlns="http://www.w3.org/2000/svg"><path d="M6.842 7.69l.38-2.474H4.848V3.61a1.237 1.237 0 011.395-1.336h1.079V.167A13.172 13.172 0 005.406 0a3.02 3.02 0 00-3.232 3.33v1.885H0V7.69h2.173v5.981h2.675V7.69z"/></symbol><symbol viewBox="0 0 46 45.722" id="facebook-round" xmlns="http://www.w3.org/2000/svg"><path d="M46 22.999a23 23 0 10-26.594 22.723V29.648h-5.843v-6.649h5.843v-5.067c0-5.764 3.432-8.948 8.687-8.948a35.442 35.442 0 015.15.453v5.657h-2.9c-2.857 0-3.747 1.773-3.747 3.592v4.318h6.379l-1.02 6.649h-5.36v16.069A23.01 23.01 0 0046 22.999z"/></symbol><symbol viewBox="0 0 36 31.622" id="farben" xmlns="http://www.w3.org/2000/svg"><g data-name="Сгруппировать 56"><path data-name="Контур 24" d="M33.058 6.743c-.023-1.318-.07-1.364-1.5-1.588-.4-1.4-1.194-2.169-2.391-2.174q-7.414-.026-14.828 0a2.384 2.384 0 00-2.256 1.7c-.057.172-.111.344-.159.5-1.394.125-1.422.156-1.424 1.543V8.34c0 1.321.022 1.342 1.3 1.43.041 0 .079.041.119.064.623 1.782 1.182 2.168 3.1 2.167h13.493c1.887 0 2.492-.436 3.072-2.2 1.276-.147 1.276-.147 1.517-1.459 1.208-.176 1.363-.05 1.367 1.134v2.881c0 1.048-.084 1.134-1.11 1.134h-8.433a3.923 3.923 0 00-3.955 3.9c-.009.673 0 1.347 0 2.112h-1.182c-.817.011-1.063.235-1.065 1.033q-.012 3.9 0 7.8a3.144 3.144 0 00.3 1.376 3.822 3.822 0 001.326 1.393 5.106 5.106 0 00.649.384 2.163 2.163 0 001.5 0 4.914 4.914 0 00.707-.418 3.478 3.478 0 001.407-1.668 2.607 2.607 0 00.128-.786c.035-2.739.011-5.478.015-8.217a.792.792 0 00-.907-.9h-1.344v-2.066a2.142 2.142 0 012.43-2.406c2.692 0 5.385-.048 8.076.017a2.8 2.8 0 002.986-1.824V8.44a2.67 2.67 0 00-2.938-1.697zm-3.1 3.215a2.192 2.192 0 01-.11.4 5.853 5.853 0 01-.878.133q-7.2.012-14.4 0c-.9 0-1.054-.164-1.057-1.07 0-1.334-.007-2.669 0-4 0-.734.181-.915.915-.915q7.34-.007 14.681 0c.474 0 .857.106.858.676.001 1.593-.006 3.184-.013 4.776zm-8.1 20.01a1.3 1.3 0 01-1.542-1.406h2.856a1.238 1.238 0 01-1.324 1.406zm1.335-8.921v5.917h-2.88v-5.917z"/><path data-name="Контур 25" d="M1.547 0l-.021 15.947v6.393c0 1.091.5 1.643 1.462 1.655.945.011 1.488-.579 1.5-1.633v-1.264a.755.755 0 01.813-.848c1.218-.013 2.436-.021 3.653 0 .628.011.815.432.811 1a461.173 461.173 0 00-.019 5.127c.006 1.473.575 2.034 2.026 2.045a1.6 1.6 0 001.7-1.655c.035-.607 0-1.217.014-1.826.013-.693.234-.921.932-.933.819-.014 1.639 0 2.459 0a2.781 2.781 0 01.331.048v1.438h-2.193c0 .425.011.767 0 1.108a3.385 3.385 0 11-6.768.014c-.022-1.334 0-2.669 0-4v-.792H6.055c-.014.267-.023.495-.038.723a3.3 3.3 0 01-2.385 2.9 3.007 3.007 0 01-3.247-1.562c-.149-.26-.261-.542-.389-.814V.008z"/><path data-name="Контур 26" d="M27 0v1.481h-1.547V0z"/><path data-name="Контур 27" d="M5.275 4.516h1.431v9.693H5.275z"/><path data-name="Контур 28" d="M13.529 13.514h1.438v5.194H13.53z"/><path data-name="Контур 29" d="M6.723 15.79v1.443H5.277V15.79z"/><path data-name="Контур 30" d="M13.515 21.729v-1.438h1.448v1.441z"/><path data-name="Контур 31" d="M27.046 7.512h1.426v1.446h-1.426z"/><path data-name="Контур 32" d="M24.055 7.517h1.385v1.434h-1.385z"/></g></symbol><symbol viewBox="0 0 33.194 33.195" id="gardinen" xmlns="http://www.w3.org/2000/svg"><g data-name="Сгруппировать 63"><path data-name="Контур 80" d="M7.88 31.577a12.859 12.859 0 00-3.169-7.684c-.4-.456-.8-.9-1.208-1.348-.553-.615-.43-1.174.332-1.487a19.711 19.711 0 004.87-2.833 18.82 18.82 0 003.951-4.333 19.849 19.849 0 001.62-3.005 2.06 2.06 0 01.11-.238.788.788 0 011-.318.758.758 0 01.422.981 24.326 24.326 0 01-.868 1.841 20.083 20.083 0 01-3.995 5.231 20.29 20.29 0 01-5.188 3.554c-.138.066-.274.134-.453.221.091.1.164.193.241.277a14.83 14.83 0 012.67 4 14.232 14.232 0 011.087 3.64 18.984 18.984 0 01.195 2.225.861.861 0 01-.879.888c-2.578-.015-5.155-.006-7.733-.008a.8.8 0 01-.877-.908V16.742c0-5.232.008-10.464-.01-15.7a.93.93 0 011.053-1.05q15.532.021 31.063.01c.11 0 .22-.005.329 0a.789.789 0 01.739.747c.006.087 0 .175 0 .263v31.129a.805.805 0 000 .1.858.858 0 01-.95.945c-2.545-.022-5.089-.011-7.634-.006a.819.819 0 01-.9-.888 14.565 14.565 0 013.905-9.819l.282-.321c-.131-.064-.235-.116-.34-.166a20.466 20.466 0 01-11.01-13.1 19.2 19.2 0 01-.68-4.076 30.312 30.312 0 01-.05-1.413.789.789 0 011.221-.633.78.78 0 01.363.663c.012.416.028.833.052 1.248a18.345 18.345 0 001.307 5.807 18.722 18.722 0 005.505 7.544 19.061 19.061 0 004.979 2.967c.1.041.2.08.3.128a.773.773 0 01.3 1.231c-.272.343-.575.662-.873.984a14.22 14.22 0 00-1.984 2.655 12.676 12.676 0 00-1.574 4.7c-.035.282-.063.566-.094.846.247.059 5.755.077 6.265.023V1.639c-.224-.06-29.4-.083-29.966-.02V31.55c.24.063 5.583.089 6.274.027z"/></g></symbol><symbol viewBox="0 0 31.742 31.741" id="info-circle" xmlns="http://www.w3.org/2000/svg"><path d="M15.87 0a15.871 15.871 0 1015.872 15.87A15.872 15.872 0 0015.87 0zm0 7.039a2.688 2.688 0 11-2.688 2.688 2.688 2.688 0 012.688-2.69zm3.584 16.254a.768.768 0 01-.768.768h-5.632a.768.768 0 01-.768-.768v-1.536a.768.768 0 01.768-.768h.768v-4.1h-.768a.768.768 0 01-.768-.768v-1.532a.768.768 0 01.768-.768h4.1a.768.768 0 01.768.768v6.4h.768a.768.768 0 01.768.768v1.536z"/></symbol><symbol viewBox="0 0 46.075 29.757" id="insektenschutz" xmlns="http://www.w3.org/2000/svg"><g data-name="Сгруппировать 61"><path data-name="Контур 63" d="M6.161 20.863a2.506 2.506 0 01-.223-.339 1.337 1.337 0 01-.035-.333l10.909-5.086.3.652zm22.576-5.659a2.7 2.7 0 01.223-.332l11.228 5.1-.295.655-11.21-5.09a1.459 1.459 0 01.054-.337zm-3.121-.73a9.233 9.233 0 01-1.5.221c-.385.034-.776.007-1.164.007l-.005.07c-.771-.072-1.548-.1-2.312-.224-1.327-.208-1.8-.991-1.489-2.317a3.354 3.354 0 011.334-1.954 4.238 4.238 0 015.482.477 3.391 3.391 0 01.88 1.828 1.543 1.543 0 01-1.226 1.892z"/><path data-name="Контур 64" d="M45.902 22.894v-.009a.91.91 0 01.106-.142c.019-.048.037-.1.059-.142v-.042a2.227 2.227 0 01-.222-.505 11.11 11.11 0 00-2.62-3.413 4.625 4.625 0 00-1.243-.844c-4.038-1.784-8.088-3.541-12.133-5.308-.394-.172-.779-.363-1.352-.631 1.283-.44 2.374-.816 3.467-1.183a.837.837 0 01.352-.022c.622.073 1.242.164 1.864.234 1.031.117 2.063.222 3.163.34l.118-.991c-.311-.068-.512-.13-.718-.155-1.036-.127-2.073-.245-3.11-.364a4.991 4.991 0 00-3.3.371c-1.038.361-2.072.73-3.13 1.1L27.56 13c.25.116.489.233.732.34 3.99 1.745 7.966 3.523 11.98 5.213a7.474 7.474 0 013.229 2.445c.314.423.616.856.953 1.325-.216.083-.323.132-.435.167a3.325 3.325 0 01-.43.119 22.742 22.742 0 01-10.111-.394 7.706 7.706 0 01-3.225-1.688 14.8 14.8 0 01-3.661-5.039c-.08-.182-.183-.354-.271-.522a11.308 11.308 0 01-3.416.417 10.6 10.6 0 01-3.357-.422 3.694 3.694 0 00-.188.347 14.474 14.474 0 01-2.053 3.454 9.294 9.294 0 01-5.841 3.69 53.04 53.04 0 01-2.471.384 22.041 22.041 0 01-5.982-.1 2.6 2.6 0 01-1.509-.468 11.154 11.154 0 011.894-2.4 3.921 3.921 0 011.314-.9q6.485-2.813 12.954-5.665c.24-.1.47-.232.667-.33l.343-1.759c-.222-.1-.433-.2-.654-.277-1.126-.392-2.26-.764-3.381-1.17a2.739 2.739 0 00-1.48-.138c-.732.132-1.482.16-2.223.247-.821.1-1.64.21-2.534.325l.152 1.034c1.2-.144 2.3-.256 3.386-.411a5.545 5.545 0 013.4.306 14.259 14.259 0 001.345.485 6.033 6.033 0 01.58.3c-.28.13-.467.221-.658.3-3.934 1.724-7.851 3.49-11.813 5.147a7.838 7.838 0 00-3.249 2.431c-.565.722-1.038 1.517-1.552 2.28v.9a4.646 4.646 0 002.806 1.193 22.29 22.29 0 0010.487-.788 25.265 25.265 0 002.986-1.45 7.159 7.159 0 01-.492.969 2.4 2.4 0 00-.393 1.431c-.006 1.044-.1 2.088-.089 3.132a1.034 1.034 0 01-.639 1.056 4.228 4.228 0 00-.534.376l.53.854c.519-.318 1.015-.582 1.456-.918a.922.922 0 00.221-.627c.062-1.252.112-2.505.133-3.759a2.106 2.106 0 01.346-1.173c.519-.792 1.005-1.605 1.525-2.443.166.979.284 1.884.48 2.772a6.387 6.387 0 001.217 2.567 5.372 5.372 0 00.727.785 3.16 3.16 0 004.384-.016 5.869 5.869 0 001.563-2.262 9.679 9.679 0 00.728-3.81c.345.139.414.443.555.666a10.16 10.16 0 011.31 2.227 10 10 0 01.148 2.487c.028.656.081 1.312.083 1.967a.812.812 0 00.456.795c.388.213.76.456 1.214.731l.524-.761c-.047-.1-.052-.146-.071-.153-1.04-.378-1.13-1.24-1.126-2.167 0-.777-.055-1.553-.032-2.329a2.4 2.4 0 00-.44-1.5 5.733 5.733 0 01-.435-.889 14.12 14.12 0 004.96 2.01 23.675 23.675 0 009.057.112 3.531 3.531 0 002.262-1.164zm-21.248.616h-3.771v-.9c1.25-.044 2.48-.014 3.771-.011zm1.229-2.919h-6v-.813h6z"/><path data-name="Контур 65" d="M17.386 7.804c.4.7.882 1.35 1.334 2.018.146.216.316.417.478.629 1.958-1.845 4.667-2.51 7.525-.011.175-.24.355-.471.518-.713.717-1.066 1.417-2.144 2.15-3.2a7.009 7.009 0 01.926-1.081c1-.946 2.021-1.864 3.028-2.8.167-.155.3-.341.542-.611l-.706-.66c-.8.726-1.5 1.419-2.261 2.037a15.465 15.465 0 00-3.465 4.069c-.3.5-.65.98-1.066 1.6a3.283 3.283 0 00-2.138-3.08 2.461 2.461 0 01.771-2.387c.727-.663 1.371-1.417 2.043-2.14.216-.232.4-.49.6-.729l-.57-.675-.052-.038a1.03 1.03 0 01-.124.015c-1 1.073-1.9 2.1-2.876 3.058a2.716 2.716 0 00-.882 1.867 1.37 1.37 0 01-.257.769 1.546 1.546 0 01-.135-.433 3.3 3.3 0 00-1.17-2.48c-.894-.847-1.7-1.794-2.589-2.756a.725.725 0 01-.077-.067c-.018 0-.034-.008-.051-.012l-.013.008h.007l-.651.748c.232.274.431.53.652.766.673.721 1.319 1.473 2.042 2.141a2.4 2.4 0 01.717 2.375 3.2 3.2 0 00-2.131 3.031c-.8-1.2-1.488-2.244-2.194-3.277a5.785 5.785 0 00-.736-.894c-.622-.6-1.27-1.179-1.912-1.761s-1.275-1.145-1.944-1.744l-.692.768c.688.632 1.331 1.248 2 1.833a14.98 14.98 0 013.359 3.817z"/><path data-name="Контур 66" d="M16.383 21.879a.1.1 0 01-.034.009l.058-.065c-.008.019-.01.049-.024.056z"/><path data-name="Контур 67" d="M29.495 21.825c.018 0 .045 0 .053.012a.129.129 0 01.016.03z"/><path data-name="Контур 68" d="M22.945 14.771c-.771-.072-1.548-.1-2.312-.224-1.327-.208-1.8-.991-1.489-2.317a3.354 3.354 0 011.334-1.954 4.238 4.238 0 015.482.477 3.389 3.389 0 01.88 1.828 1.543 1.543 0 01-1.224 1.893 9.233 9.233 0 01-1.5.221c-.385.034-.776.007-1.164.007z"/><path data-name="Контур 69" d="M40.189 19.969l-.295.655-11.21-5.09a1.467 1.467 0 01.053-.331 2.685 2.685 0 01.224-.332z"/><path data-name="Контур 70" d="M16.812 15.105l.3.652-10.951 5.106a2.506 2.506 0 01-.223-.339 1.335 1.335 0 01-.035-.333z"/><path data-name="Контур 71" d="M16.322 21.918l.084-.094c-.007.02-.01.049-.024.056a.264.264 0 01-.082.014z"/><path data-name="Контур 72" d="M29.605 21.892l-.11-.066c.018 0 .045 0 .053.012a.332.332 0 01.034.078z"/></g></symbol><symbol viewBox="0 0 24 32" id="map-marker" xmlns="http://www.w3.org/2000/svg"><path d="M10.767 31.355C1.685 18.189 0 16.838 0 12a12 12 0 0124 0c0 4.838-1.685 6.189-10.767 19.355a1.5 1.5 0 01-2.467 0zM12 17a5 5 0 10-5-5 5 5 0 005 5z"/></symbol><symbol viewBox="0 0 47.631 20.498" id="markisen" xmlns="http://www.w3.org/2000/svg"><path data-name="Контур 73" d="M1.515 17.574a1.909 1.909 0 01.55 1.372v1.552h1.687v-1.424a6.4 6.4 0 003.439-.1 6.113 6.113 0 002.769-2.09c.189.172.367.314.522.479a5.4 5.4 0 008.265-.009c.137-.148.272-.3.475-.519a5.61 5.61 0 004.551 2.43 5.512 5.512 0 004.6-2.447 5.775 5.775 0 004.656 2.448 7.3 7.3 0 0110.785-.215v1.445h1.735v-1.75a1.349 1.349 0 01.482-1.079 5.3 5.3 0 001.555-3.008 2.237 2.237 0 00-.3-1.691Q43.503 6.96 39.775.918a1.661 1.661 0 00-1.592-.914Q23.92.041 9.657-.002A1.986 1.986 0 007.73 1.082C5.388 4.913 3.038 8.739.6 12.508a3.062 3.062 0 00-.286 3.141 7.755 7.755 0 001.201 1.925zm31.359 0c-1.369-.028-3.277-1.2-3.39-2.856h7.053a3.635 3.635 0 01-3.658 2.857zm9.7-.021a3.685 3.685 0 01-3.94-2.84h7.03a3.357 3.357 0 01-3.094 2.842zm-4.3-15.805l6.962 11.2h-7.048l-4.121-11.2zm-6.025 0l4.114 11.185h-7.2L27.782 1.748zM23.94 17.562a3.583 3.583 0 01-3.675-2.851h7.051a3.48 3.48 0 01-3.378 2.858zM21.545 1.769h4.514l1.369 11.143h-7.236l1.351-11.137zm-7.026 15.8a3.557 3.557 0 01-3.446-2.838h7.108a3.683 3.683 0 01-3.664 2.84zm5.3-15.8l-1.35 11.135h-7.212l4.1-11.135zM9.331 1.751h4.207L9.424 12.942H2.379zm-.39 12.975a3.616 3.616 0 01-7.064 0z"/></symbol><symbol viewBox="0 0 14.266 14.266" id="phone" xmlns="http://www.w3.org/2000/svg"><path d="M13.859 10.081l-3.12-1.337a.669.669 0 00-.78.192l-1.383 1.689a10.328 10.328 0 01-4.937-4.938l1.689-1.382a.667.667 0 00.192-.78L4.182.4a.673.673 0 00-.766-.383L.518.686A.669.669 0 000 1.338a12.928 12.928 0 0012.929 12.929.669.669 0 00.652-.518l.669-2.9a.677.677 0 00-.39-.769z"/></symbol><symbol viewBox="0 0 31.998 33.195" id="sonnenschutz" xmlns="http://www.w3.org/2000/svg"><g data-name="Сгруппировать 64"><path data-name="Контур 81" d="M1.78 18.225V5.169c0-.248-.015-.5 0-.742.042-.571-.086-.887-.782-.932-.954-.062-.983-.135-.99-1.077-.021-2.742-.213-2.4 2.353-2.4q13.5-.009 27 0c.581 0 1.191-.133 1.706.3.545.461 1.049.943.877 1.747a2.117 2.117 0 01-1.711 1.438c-.591.042-1.186.023-1.78.017-.436 0-.621.2-.613.63.008.4 0 .791 0 1.187v26.111c0 1.739 0 1.744-1.7 1.744H3.44c-.247 0-.495-.007-.742 0-.6.017-.934-.243-.922-.875.006-.346 0-.692 0-1.039V18.223zm24.93-1.612V5.047c0-1.655.136-1.523-1.51-1.524q-10.38-.009-20.759 0c-1.639 0-1.52-.121-1.52 1.518v23.132c0 1.659-.13 1.515 1.511 1.516H25.34c.3 0 .593 0 .889-.015a.437.437 0 00.465-.454c.014-.3.017-.592.017-.889q-.002-5.862-.001-11.722zM14.81 30.82H4.282c-.3 0-.593 0-.889.016-.385.019-.465.276-.465.606s.087.586.471.6c.346.014.692.012 1.038.012l20.761.006c.3 0 .593-.011.89 0 .427.009.618-.177.617-.619s-.2-.622-.623-.614c-.346.006-.692 0-1.038 0q-5.114-.01-10.233-.008zm2.379-28.431h9.64a10.148 10.148 0 001.182-.053.5.5 0 00.441-.511.541.541 0 00-.475-.636 7.227 7.227 0 00-1.034-.039H7.219c-.3 0-.593 0-.889.02-.395.022-.438.294-.442.618 0 .345.1.575.477.588.345.012.692.015 1.037.015zM2.352 1.767c-.01-.4-.24-.585-.647-.6-.356-.015-.551.132-.556.5s0 .708.5.7c.396.001.667-.14.703-.6zm1.717-.606c-.478.01-.552.25-.559.588-.009.426.141.647.594.615.417-.03.639-.241.607-.659a.56.56 0 00-.642-.545zm26.765.52c-.049-.364-.3-.51-.686-.521-.475-.014-.519.28-.526.65-.01.443.2.591.612.558a.59.59 0 00.596-.688z"/><path data-name="Контур 82" d="M30.176 30.818h-.151c-1.394-.008-1.482-.065-1.535-1a2.191 2.191 0 011.595-2.485 1.991 1.991 0 011.882 1.579 3.941 3.941 0 01.024.74c-.017 1.015-.112 1.118-1.075 1.164-.245.011-.491.001-.74.002zm.666-1.642c0-.385-.13-.678-.566-.7-.421-.018-.612.218-.635.625-.026.464.236.577.638.567.34-.009.567-.109.563-.492z"/><path data-name="Контур 83" d="M30.768 4.722c-.043.33-.223.552-.574.524a.514.514 0 01-.044-1.017c.338-.058.551.141.618.493z"/><path data-name="Контур 84" d="M30.761 6.562c-.094.329-.293.535-.642.447a.475.475 0 01-.39-.547.493.493 0 01.634-.445.508.508 0 01.398.545z"/><path data-name="Контур 85" d="M30.762 8.343c-.093.327-.292.535-.639.447a.475.475 0 01-.39-.545.49.49 0 01.63-.444.508.508 0 01.399.542z"/><path data-name="Контур 86" d="M30.762 10.105c-.068.332-.275.536-.615.473a.481.481 0 01-.415-.528.494.494 0 01.608-.479.513.513 0 01.422.534z"/><path data-name="Контур 87" d="M30.763 11.884c-.069.333-.278.538-.618.477a.477.477 0 01-.414-.529.5.5 0 01.61-.482.509.509 0 01.422.534z"/><path data-name="Контур 88" d="M30.762 13.626a.517.517 0 01-.459.517.492.492 0 01-.57-.521.476.476 0 01.45-.5.507.507 0 01.579.504z"/><path data-name="Контур 89" d="M30.762 15.464c-.093.328-.292.535-.639.447a.475.475 0 01-.39-.545.49.49 0 01.63-.444.508.508 0 01.399.542z"/><path data-name="Контур 90" d="M30.766 17.245c-.092.331-.293.537-.641.451a.476.476 0 01-.392-.547.492.492 0 01.631-.448.507.507 0 01.402.544z"/><path data-name="Контур 91" d="M30.761 18.99a.512.512 0 01-.473.494.494.494 0 01-.558-.537.473.473 0 01.464-.482.512.512 0 01.567.525z"/><path data-name="Контур 92" d="M30.762 20.788c-.068.332-.275.536-.615.473a.481.481 0 01-.415-.528.494.494 0 01.607-.479.513.513 0 01.423.534z"/><path data-name="Контур 93" d="M30.773 22.582c-.081.274-.235.478-.512.469a.494.494 0 01-.522-.573.475.475 0 01.5-.45.521.521 0 01.534.554z"/><path data-name="Контур 94" d="M30.762 24.339a.51.51 0 01-.6.485.481.481 0 01-.428-.52.5.5 0 01.6-.5.515.515 0 01.428.535z"/><path data-name="Контур 95" d="M30.3 26.618a.514.514 0 01-.549-.391.488.488 0 01.429-.635.474.474 0 01.552.38c.099.349-.111.543-.432.646z"/></g></symbol><symbol viewBox="0 0 36 27.404" id="tapeten" xmlns="http://www.w3.org/2000/svg"><path data-name="Контур 22" d="M36 24.525V2.869l-.152-.389A3.654 3.654 0 0032.366.001c-.4.009-.8-.006-1.195.005-.742.021-.951.23-.957.981-.008 1.1 0 2.2 0 3.3v1.375c-.823.157-18.142.12-18.627-.025-.056-.347-.1-.7-.169-1.038A5.779 5.779 0 00.262 3.985c-.076.24-.174.472-.262.708v17.859l.229.731a5.7 5.7 0 003.005 3.53 6.354 6.354 0 002.93.582q8.22-.01 16.44 0c3.208 0 6.417-.032 9.625.007a3.72 3.72 0 003.656-2.626 1.763 1.763 0 01.115-.251zM30.216 7.268v13.263c0 .9.21 1.1 1.121 1.112a10.875 10.875 0 011.4.062 2.064 2.064 0 011.79 1.959 2.1 2.1 0 01-1.569 2.143 4.91 4.91 0 01-1.182.1q-10.611.009-21.223 0h-.83c.12-.165.165-.242.225-.307a6.176 6.176 0 001.612-4.431c-.028-4.4-.008-8.807 0-13.212 0-.225.02-.451.032-.7zM10.064 17.513l-.134.09a5.743 5.743 0 00-4.15-1.775 5.866 5.866 0 00-4.282 1.859c-.019-.37-.041-.6-.042-.822q-.005-1.967 0-3.934c0-2.341-.013-4.683.009-7.024a4.3 4.3 0 017.53-2.948 4.6 4.6 0 011.069 3.183q-.009 5.338 0 10.677v.694zm21.677-15.97a2.229 2.229 0 012.8 2.329v16.293c0 .182-.016.364-.025.573a12.455 12.455 0 00-1.337-.47 13.572 13.572 0 00-1.44-.185zM5.78 25.911a4.335 4.335 0 01-4.318-4.274 4.295 4.295 0 114.318 4.274z"/><path data-name="Контур 23" d="M5.712 18.721a2.949 2.949 0 00-2.874 2.944 2.919 2.919 0 005.838-.023 2.937 2.937 0 00-2.964-2.921zM4.364 21.61a1.4 1.4 0 112.8.009 1.387 1.387 0 01-1.441 1.389 1.368 1.368 0 01-1.359-1.398z"/></symbol><symbol viewBox="0 0 41.567 32.038" id="teppichboden" xmlns="http://www.w3.org/2000/svg"><path data-name="Контур 102" d="M.001 30.216V1.633c0-.575.13-.748.669-.927a14.826 14.826 0 014.194-.7 12.366 12.366 0 012.534.192c.743.129 1.474.332 2.2.531a.718.718 0 01.6.792c.005.208 0 .416 0 .656h31.36v1.5l-.02.011v2.856h.02v1.493h-.018v2.875h.018v1.5h-.034v2.867h.034v1.5h-.017v2.868h.017v1.466h-.015v2.9h.015V25.5a21.275 21.275 0 000 2.744v1.605h-31.36v.573a.768.768 0 01-.655.892 14.662 14.662 0 01-4.194.7 13.745 13.745 0 01-3.071-.281c-.577-.113-1.146-.28-1.711-.447a.717.717 0 01-.574-.77c.005-.087.008-.194.008-.3zm10.214-1.89c.016.016.026.027.038.037s.023.024.035.025c.121 0 .242.01.364.01h29.381V3.664H10.24a2.9 2.9 0 00-.032.705c-.007.224 0 .449 0 .722h21.454c.926 0 1.066.146 1.131 1.056a5.077 5.077 0 004.233 4.687c.283.045.571.06.858.083a.73.73 0 01.727.722c.005.076 0 .152 0 .227v8.285c0 .091.005.183 0 .273a.724.724 0 01-.794.7 5.107 5.107 0 00-4.953 4.3 6.516 6.516 0 00-.075.721.737.737 0 01-.829.8q-2.709.006-5.417 0H10.215zM26.202 8.434a.893.893 0 011.494-.009c2.271 2.3 4.564 4.576 6.849 6.861.021.021.041.045.065.064a.828.828 0 01-.006 1.359c-2.33 2.3-4.64 4.628-6.958 6.945a2.45 2.45 0 01-.231.219.718.718 0 01-.922 0 3.327 3.327 0 01-.3-.283l-6.148-6.147c-.116-.116-.237-.227-.376-.361-.136.128-.258.237-.373.353q-3.059 3.056-6.116 6.114l-.161.161c-.469.457-.812.455-1.287-.015-.41-.405-.815-.815-1.224-1.222-.084-.084-.175-.161-.292-.268v3.217c.325.078 20.382.109 21.12.031a6.7 6.7 0 015.746-5.772c.071-.323.092-6.762.023-7.3a6.722 6.722 0 01-5.785-5.794h-21.1v3.229c.089-.073.167-.125.233-.19.431-.427.857-.86 1.289-1.286a.768.768 0 011.287.009q3.124 3.119 6.242 6.245a4.455 4.455 0 01.33.426c.185-.174.307-.281.422-.4 2.067-2.06 4.139-4.11 6.179-6.186zm-5.374 7.562l6.139 6.139 6.136-6.138c-.134-.232-5.38-5.529-6.121-6.157zm-10.621-1.788c.125-.109.214-.179.294-.258.43-.427.854-.861 1.289-1.284a.736.736 0 011.188-.007q1.391 1.375 2.766 2.766a.733.733 0 010 1.187q-1.375 1.39-2.766 2.766a.735.735 0 01-1.188 0c-.508-.5-1.007-1.006-1.558-1.558-.013.146-.027.239-.028.331 0 .561-.006 1.122 0 1.683a.523.523 0 00.093.331c.675.694 1.363 1.375 2.011 2.024l6.182-6.18-6.17-6.169-.481.479c-.472.471-.939.948-1.418 1.412a.64.64 0 00-.226.512c.021.637.012 1.273.012 1.965zm.449 1.814l1.8 1.8 1.644-1.643a.9.9 0 00.081-.1l-1.794-1.793zM1.487 29.983a12.249 12.249 0 007.233.036V1.997a13.148 13.148 0 00-7.233 0z"/></symbol><symbol viewBox="0 0 40.579 30.436" id="teppiche" xmlns="http://www.w3.org/2000/svg"><g data-name="Сгруппировать 66"><path data-name="Контур 103" d="M39.143 7.252v1.442c.254 0 .492-.011.729 0a.727.727 0 01-.017 1.453c-.09.005-.181 0-.272 0h-.428a13.451 13.451 0 00-.029 1.443c.28 0 .533-.018.783 0a.722.722 0 01.529 1.147.691.691 0 01-.578.3h-.7a2.881 2.881 0 00-.037.72c-.006.224 0 .448 0 .723.276 0 .529-.017.779 0a.722.722 0 01.538 1.143.685.685 0 01-.575.307h-.695a2.15 2.15 0 00-.046.713c-.008.224 0 .449 0 .72.27 0 .521 0 .771.012a.727.727 0 01.521 1.174.694.694 0 01-.589.28h-.686v1.432c.246 0 .5 0 .746.012a.727.727 0 01-.053 1.453h-.689v1.4a2.4 2.4 0 00.691.039.727.727 0 01.052 1.454c-.238.016-.478 0-.74 0v1.444c.266 0 .52-.017.771 0a.706.706 0 01.652.734.714.714 0 01-.677.713c-.12.01-.241 0-.362 0h-.383v1.44c.228 0 .451.01.673 0a.747.747 0 01.752.737.772.772 0 01-.765.728c-1.644-.014-3.288-.005-4.932-.005H1.07c-.136 0-.273.009-.408 0a.727.727 0 01.015-1.448c.239-.017.479 0 .746 0a13.863 13.863 0 00.03-1.444c-.281 0-.534.018-.784 0a.723.723 0 01-.531-1.146.69.69 0 01.578-.3h.7a2.73 2.73 0 00.038-.719c.007-.224 0-.448 0-.724-.276 0-.528.013-.778 0a.681.681 0 01-.619-.455.692.692 0 01.107-.722.67.67 0 01.546-.273h.694a2.075 2.075 0 00.047-.712c.009-.224 0-.449 0-.721-.27 0-.521 0-.771-.012a.728.728 0 01.066-1.453h.686v-1.406a3.744 3.744 0 00-.745-.035.7.7 0 01-.626-.446.725.725 0 01.678-1.009h.691v-1.4a2.353 2.353 0 00-.691-.039.728.728 0 01-.053-1.454c.238-.016.478 0 .766 0v-1.444c-.291 0-.544.015-.8 0a.675.675 0 01-.608-.469.693.693 0 01.124-.72.682.682 0 01.553-.26h.724v-1.441c-.255 0-.478-.01-.7 0a.731.731 0 11.012-1.461c.208.016.419 0 .656 0a3.385 3.385 0 00.03-.723c.005-.223 0-.447 0-.72-.279 0-.531.013-.782 0a.68.68 0 01-.615-.459.693.693 0 01.11-.722.676.676 0 01.548-.271h.7a2.368 2.368 0 00.043-.716c.008-.224 0-.448 0-.717-.273 0-.526.008-.776-.013a.723.723 0 01-.545-1.14.686.686 0 01.573-.31c.226-.005.452 0 .695 0a1.943 1.943 0 00.05-.709c.01-.224 0-.45 0-.724-.267 0-.519.007-.768-.012A.723.723 0 01.12.326.689.689 0 01.645.012c.12-.011.241 0 .362 0h38.469a3.886 3.886 0 01.452.006.728.728 0 01-.016 1.445c-.134.014-.271 0-.407.005h-.371v1.4a2.866 2.866 0 00.7.035.731.731 0 01.727.617.722.722 0 01-.684.837c-.237.016-.477 0-.737 0v1.4a2.169 2.169 0 00.687.041.732.732 0 01.733.61.72.72 0 01-.676.843c-.23.015-.47.001-.741.001zm-1.495-5.763c-.838-.075-34.387-.047-34.73.029v27.375c0 .012.015.024.025.035a.3.3 0 00.023.023h34.682z"/><path data-name="Контур 104" d="M20.266 27.533c-4.963 0-9.927-.009-14.89.01-.7 0-1.037-.261-1.034-1.057q.027-11.292.011-22.584v-.226a.721.721 0 01.753-.775h30.369a.717.717 0 01.752.73c.005.09 0 .181 0 .272v22.855a.721.721 0 01-.8.773c-1.147.005-2.293 0-3.44 0q-5.86.002-11.721.002zM9.022 6.513c.134.142.234.252.338.357.65.651 1.3 1.3 1.953 1.951a.732.732 0 01.273.723 1.192 1.192 0 01-.3.49c-.662.681-1.339 1.348-2.01 2.021-.082.082-.156.173-.244.271.123.129.223.239.329.344q.974.977 1.952 1.951a.729.729 0 01.23.853 1.356 1.356 0 01-.293.394c-.657.666-1.321 1.324-1.981 1.987-.081.082-.152.175-.284.329a3.716 3.716 0 01.378.289q.982.97 1.952 1.951a.737.737 0 01-.005 1.182c-.052.055-.106.107-.16.16l-1.887 1.889c-.081.081-.149.176-.233.276.629.628 1.247 1.226 1.839 1.848a.932.932 0 00.75.3q9.321-.013 18.642-.007h.547c-.13-.139-.218-.239-.311-.333-.415-.417-.836-.828-1.246-1.25a.738.738 0 01.008-1.182c.062-.066.127-.128.191-.192l1.855-1.857c.081-.081.148-.175.253-.3-.135-.117-.255-.209-.362-.315a359.02 359.02 0 01-1.951-1.952.732.732 0 01-.012-1.15c.062-.066.127-.128.192-.192l1.791-1.792c.1-.1.2-.215.322-.341-.115-.123-.212-.234-.317-.339-.638-.641-1.265-1.3-1.924-1.915a.822.822 0 010-1.291c.659-.619 1.286-1.274 1.924-1.915.1-.1.2-.215.316-.339-.118-.125-.217-.236-.322-.341-.607-.609-1.2-1.235-1.829-1.818a.868.868 0 01.012-1.482c.479-.433.919-.91 1.43-1.422H11.401a.455.455 0 00-.363.137c-.652.665-1.316 1.323-2.016 2.022zm25.733-2.157c-.529 0-1.011.011-1.493 0a.719.719 0 00-.594.239c-.543.566-1.105 1.113-1.659 1.669-.082.083-.156.173-.245.272.123.129.224.239.329.344.66.662 1.327 1.318 1.981 1.987a.724.724 0 01.006 1.117c-.061.067-.128.129-.192.193l-1.887 1.889c-.082.082-.151.175-.283.328a3.8 3.8 0 01.378.289c.644.636 1.269 1.291 1.927 1.913a.794.794 0 01-.013 1.254c-.069.058-.128.127-.193.191l-1.823 1.825c-.08.081-.148.175-.231.275l2.038 2.036c.117.117.243.228.347.355a.72.72 0 01.01.953 2.81 2.81 0 01-.22.228l-1.856 1.857c-.1.1-.2.215-.319.339.094.1.17.193.252.276.448.449.923.872 1.335 1.352a1.386 1.386 0 001.33.55c.351-.046.713 0 1.073-.017zM9.815 9.423c-.115-.123-.212-.234-.316-.339-.639-.641-1.265-1.295-1.924-1.914a.815.815 0 010-1.289c.435-.395.836-.826 1.25-1.244.075-.076.14-.161.224-.26a20 20 0 00-3.234.046v21.573c0 .012.015.025.023.035s.021.021.03.03h3.2c-.117-.125-.2-.225-.3-.319-.415-.417-.836-.828-1.245-1.249a.738.738 0 01.007-1.182c.062-.065.127-.128.192-.192l1.854-1.856c.081-.081.149-.176.256-.3-.135-.116-.256-.207-.362-.313-.61-.605-1.2-1.232-1.829-1.816a.847.847 0 01.021-1.446c.058-.048.107-.106.16-.159l1.79-1.792a2.672 2.672 0 00.193-.245l-2.034-2.033c-.117-.117-.243-.228-.348-.355a.719.719 0 01-.008-.952 2.7 2.7 0 01.219-.228l1.854-1.856c.11-.109.21-.219.327-.345z"/><path data-name="Контур 105" d="M27.271 15.196a.619.619 0 01-.2.541c-.055.051-.107.107-.16.16q-2.976 2.976-5.954 5.949a1.245 1.245 0 01-.469.331.729.729 0 01-.775-.234c-.479-.5-.978-.985-1.469-1.475q-2.3-2.3-4.6-4.611a1.213 1.213 0 01-.313-.477.705.705 0 01.231-.734c.585-.567 1.155-1.149 1.731-1.725q2.176-2.176 4.354-4.349a1.15 1.15 0 01.43-.311.677.677 0 01.746.186c.03.034.064.064.1.1l6.048 6.047c.164.169.338.338.3.602zm-6.944 5.182c.963-.847 4.959-4.9 5.125-5.2-.847-.964-4.9-4.962-5.2-5.127-.988.87-4.961 4.9-5.1 5.15z"/><path data-name="Контур 106" d="M20.295 18.118a.743.743 0 01-.546-.234c-.714-.713-1.433-1.42-2.136-2.143a.694.694 0 010-1.048q1.055-1.084 2.139-2.14a.706.706 0 011.081 0q1.082 1.057 2.138 2.14a.694.694 0 010 1.047c-.715.733-1.443 1.452-2.17 2.173a.661.661 0 01-.506.205zm-.063-1.848l1.08-1.076-1.044-1.09c-.186.186-.371.359-.543.545a2.98 2.98 0 00-.522.565z"/></g></symbol><symbol viewBox="0 0 31.803 34.672" id="turen" xmlns="http://www.w3.org/2000/svg"><g data-name="Сгруппировать 62"><path data-name="Контур 74" d="M29.167 33.474h1.818a1.908 1.908 0 01.337.013.6.6 0 01.48.591.578.578 0 01-.526.541 2.854 2.854 0 01-.3.008c-3.578.013-7.156.032-10.734.037q-8.559.012-17.117.006c-.825 0-1.649-.024-2.474-.046a.893.893 0 01-.392-.1.543.543 0 01-.247-.581.572.572 0 01.521-.466c.174-.015.35-.006.525-.006h1.091c0-.16.011-.3.011-.45V1.375c0-.113-.006-.226 0-.337a1.048 1.048 0 01.865-.992 3.186 3.186 0 01.483-.047h7.583q8.351.015 16.7.037c.138 0 .276 0 .413.01a.975.975 0 01.914.844 3.91 3.91 0 01.04.6v31.533zm-1.207-.02c.064-.627.04-31.967-.027-32.261H12.219c-.1 0-.2.006-.3.011-.01 0-.02.013-.029.021a.241.241 0 00-.021.022v32.208zM3.392 1.204c-.066.622-.043 31.974.02 32.245h7.26c.066-.56.044-31.974-.022-32.245z"/><path data-name="Контур 75" d="M25.904 9.513v5.816a1.064 1.064 0 01-1.126 1.121c-2.026-.018-4.052-.006-6.078-.006h-3.6a1.151 1.151 0 01-.712-.184 1.032 1.032 0 01-.441-.751 2.7 2.7 0 01-.006-.3V3.84a2.557 2.557 0 01.014-.412.99.99 0 01.934-.831c.536-.024 1.074-.016 1.611-.021.362 0 .725-.011 1.087-.01.249 0 .5.02.747.019.812 0 1.624-.019 2.436-.019s1.623.014 2.434.02c.575 0 1.149.009 1.724 0a1 1 0 01.945.772 1.972 1.972 0 01.029.485q.004 2.842.002 5.67zm-4.484 5.769c.062-.5.045-11.25-.015-11.522h-2.98c-.065.5-.049 11.241.018 11.522zM15.09 3.74v.3l.012 11.179c0 .01.014.02.022.029l.037.041h.7c.225 0 .451.008.675 0a2.08 2.08 0 00.682-.039V3.75c-.095 0-.168-.012-.241-.012zm7.535 0v11.532h2.107V3.74h-2.107z"/><path data-name="Контур 76" d="M19.955 20.476h4.729a2.009 2.009 0 01.448.029 1 1 0 01.766.951c.016.487.008.976.008 1.463v7.356a1.123 1.123 0 01-1.261 1.259c-3.128-.024-6.256-.011-9.384-.011h-.112a1.1 1.1 0 01-1.216-1.194c.034-.912.008-1.826.008-2.74v-5.893c0-.1 0-.2.006-.3a1.033 1.033 0 01.94-.917c.112-.009.225-.006.338-.006zm-1.546 9.847a19.837 19.837 0 003.045-.01V21.88c0-.062-.007-.124-.013-.187 0-.01-.012-.02-.02-.029a.342.342 0 00-.027-.025 21.632 21.632 0 00-2.985.039zm-3.277-8.679c-.07.446-.055 8.427.014 8.7a10.911 10.911 0 002.1-.025v-8.437c0-.062-.006-.125-.012-.187 0-.01-.014-.019-.021-.029a.265.265 0 00-.018-.02zm7.522.006c-.073.365-.065 8.407.005 8.69a11.435 11.435 0 002.077-.017c.068-.893.036-8.405-.041-8.7h-1.9a.816.816 0 00-.141.027z"/><path data-name="Контур 77" d="M15.014 17.871h1.163a1.305 1.305 0 01.367.05.563.563 0 01.005 1.075 1.065 1.065 0 01-.329.051h-2.513a.615.615 0 01-.633-.566.6.6 0 01.628-.607c.437-.017.875 0 1.312 0z"/><path data-name="Контур 78" d="M9.317 9.987v6.043a4.451 4.451 0 01-.014.449.991.991 0 01-.776.857 2.937 2.937 0 01-.522.046q-.976.008-1.952 0a3.16 3.16 0 01-.448-.035 1.008 1.008 0 01-.885-.926 2.761 2.761 0 01-.007-.3V3.81a1.859 1.859 0 01.03-.41 1.066 1.066 0 011.142-.831c.775 0 1.549.017 2.324.016a1.053 1.053 0 01.866.365.879.879 0 01.231.541c.005.138.01.275.01.413l.001 6.083zm-3.422-6.23c-.069.712-.043 12.164.024 12.431a13.124 13.124 0 002.228-.032c.062-.845.034-12.105-.033-12.4z"/><path data-name="Контур 79" d="M9.316 25.56v4.915a1.02 1.02 0 01-1.075 1.052c-.813.009-1.626 0-2.439 0h-.075a1.05 1.05 0 01-1.01-1.013c-.012-.25 0-.5 0-.75v-8.893a3.464 3.464 0 01.008-.375 1 1 0 01.967-.923c.4-.019.8-.01 1.2-.01.475 0 .951.01 1.426 0a1.026 1.026 0 011 1c-.011.613 0 1.226 0 1.839l-.002 3.158zm-1.168-4.824H5.865v9.232c0 .131-.046.276.062.389h2.219z"/></g></symbol></svg>